<svg xmlns="http://www.w3.org/2000/svg" xmlns:xlink="http://www.w3.org/1999/xlink" viewBox="0 25 1000 570" width="1000" height="570" font-family="'Segoe UI', 'Segoe UI Variable', system-ui, -apple-system, 'Helvetica Neue', Arial, sans-serif" role="img" aria-labelledby="t d"><title id="t">Two directories in hybrid identity</title><desc id="d">Active Directory Domain Services handles on-premises Windows identity, while Microsoft Entra ID handles cloud identity and token-based cloud application sign-in. Connect Sync or Cloud Sync synchronises users and groups between them.</desc><defs><marker id="arrow" viewBox="0 0 10 10" refX="9" refY="5" markerWidth="7" markerHeight="7" orient="auto-start-reverse"><path d="M0,0 L10,5 L0,10 z" fill="#4aa3f0"/></marker><marker id="arrow-dashed" viewBox="0 0 10 10" refX="9" refY="5" markerWidth="7" markerHeight="7" orient="auto-start-reverse"><path d="M0,0 L10,5 L0,10 z" fill="#7b93b2"/></marker></defs><rect x="45" y="60" width="360" height="500" rx="12" fill="#161f2c" stroke="#2c3a4c" stroke-width="1.2"/><text x="61" y="84" font-size="12.5" font-weight="700" fill="#7dbbf3" text-anchor="start">On-premises: Active Directory Domain Services</text><rect x="595" y="60" width="360" height="500" rx="12" fill="#132a45" stroke="#2a4b70" stroke-width="1.2"/><text x="611" y="84" font-size="12.5" font-weight="700" fill="#7dbbf3" text-anchor="start">Cloud: Microsoft Entra ID</text><rect x="75" y="115" width="150" height="112" rx="8" fill="#1b2636" stroke="#33465c" stroke-width="1.2"/><circle cx="92" cy="133" r="10" fill="#4aa3f0"/><text x="92" y="136.96" font-size="11" font-weight="700" fill="#0b1724" text-anchor="middle">1</text><svg x="119" y="132" width="34" height="34" viewBox="0 0 18 18"><defs><linearGradient id="i1-uuid-f86ec683-0476-4385-a089-b5dcad587aad" x1="7.697" y1="779.107" x2="14.082" y2="786.57" gradientTransform="translate(0 791.516) scale(1 -1)" gradientUnits="userSpaceOnUse"><stop offset="0" stop-color="#225086" /><stop offset="1" stop-color="#0055c5" /></linearGradient><linearGradient id="i1-uuid-e422b264-2789-4744-82bd-0e3fd46a156e" x1="6.364" y1="778.103" x2="6.364" y2="794.351" gradientTransform="translate(0 791.516) scale(1 -1)" gradientUnits="userSpaceOnUse"><stop offset="0" stop-color="#6df" /><stop offset="1" stop-color="#0294e4" /></linearGradient><linearGradient id="i1-uuid-d74a81cd-bed3-408d-982d-4138865ce227" x1="9.001" y1="775.895" x2="9.001" y2="794.784" gradientTransform="translate(0 791.516) scale(1 -1)" gradientUnits="userSpaceOnUse"><stop offset="0" stop-color="#44dbf9" /><stop offset="1" stop-color="#cbf8ff" /></linearGradient><linearGradient id="i1-uuid-30674763-cae5-42ba-a84b-66be33b27883" x1="13.5" y1="774.66" x2="13.5" y2="790.721" gradientTransform="translate(0 791.516) scale(1 -1)" gradientUnits="userSpaceOnUse"><stop offset="0" stop-color="#041642" /><stop offset="1" stop-color="#041642" stop-opacity=".25" /></linearGradient></defs><g><path d="m17.647,9.967L10.147,1.506c-.599-.676-1.694-.676-2.294,0L.353,9.967c-.579.654-.428,1.641.323,2.111l7.499,4.688c.5.313,1.148.313,1.648,0l7.499-4.688c.751-.469.902-1.457.323-2.111h0Z" fill="url(#i1-uuid-f86ec683-0476-4385-a089-b5dcad587aad)" stroke-width="0" /><path d="m10.148,1.506c-.599-.676-1.694-.676-2.294,0L.354,9.967c-.579.654-.428,1.641.323,2.111,0,0,2.776,1.735,3.126,1.954.388.242,1.033.511,1.715.511.621,0,1.197-.18,1.676-.487,0,0,0,0,.002-.001l1.804-1.128-4.364-2.728,4.474-5.047c.55-.627,1.377-1.026,2.302-1.026.472,0,.917.107,1.314.292l-2.579-2.909v-.002Z" fill="url(#i1-uuid-e422b264-2789-4744-82bd-0e3fd46a156e)" stroke-width="0" /><polygon points="4.636 10.199 4.688 10.231 9.001 12.927 9.001 12.927 13.365 10.199 13.366 10.199 13.365 10.199 9.001 5.274 4.636 10.199" fill="url(#i1-uuid-d74a81cd-bed3-408d-982d-4138865ce227)" stroke-width="0" /><path d="m9.001,17c.287,0,.574-.078.824-.234l7.499-4.688c.751-.469.902-1.457.323-2.111L10.148,1.506c-.3-.338-.723-.507-1.147-.507v16.001Z" fill="url(#i1-uuid-30674763-cae5-42ba-a84b-66be33b27883)" fill-opacity=".5" isolation="isolate" opacity=".5" stroke-width="0" /></g><g><polygon points="12.925 8.752 8.37 15.131 12.925 16.985 17.48 15.131 12.925 8.752" fill="#773adc" stroke-width="0" /><polygon points="12.925 8.752 8.37 15.131 12.925 16.985 12.925 8.752" fill="#f9f9f9" isolation="isolate" opacity=".5" stroke-width="0" /></g></svg><text x="165" y="146.0" font-size="13.5" font-weight="700" fill="#e9eff6" text-anchor="start">DCs</text><text x="165" y="169.0" font-size="11" font-weight="400" fill="#aab8c7" text-anchor="start">Kerberos,</text><text x="165" y="182.75" font-size="11" font-weight="400" fill="#aab8c7" text-anchor="start">NTLM,</text><text x="165" y="196.5" font-size="11" font-weight="400" fill="#aab8c7" text-anchor="start">LDAP.</text><rect x="235" y="115" width="150" height="112" rx="8" fill="#1b2636" stroke="#33465c" stroke-width="1.2"/><svg x="249" y="132" width="34" height="34" viewBox="0 0 18 18"><defs><linearGradient id="i2-a7f731a9-5c58-44f4-8037-3c3627e98008" x1="8.45" y1="11.47" x2="8.45" y2="6.24" gradientUnits="userSpaceOnUse"><stop offset="0" stop-color="#198ab3" /><stop offset="0.16" stop-color="#1f9ac2" /><stop offset="0.5" stop-color="#29bade" /><stop offset="0.8" stop-color="#30cdef" /><stop offset="1" stop-color="#32d4f5" /></linearGradient></defs><title>Icon-manage-316</title><ellipse cx="8.45" cy="8.85" rx="2.6" ry="2.61" fill="url(#i2-a7f731a9-5c58-44f4-8037-3c3627e98008)" /><ellipse cx="15.73" cy="4.77" rx="1.27" ry="1.28" fill="#32bedd" /><ellipse cx="15.73" cy="8.95" rx="1.27" ry="1.28" fill="#32bedd" /><ellipse cx="15.73" cy="13.12" rx="1.27" ry="1.28" fill="#32bedd" /><ellipse cx="12.83" cy="6.91" rx="1.27" ry="1.28" fill="#50e6ff" /><ellipse cx="12.83" cy="11.09" rx="1.27" ry="1.28" fill="#50e6ff" /><path d="M2.41,5.58A.24.24,0,0,1,2.5,5.5L8.32,2.11c.08,0,5,2.78,5,2.78a.24.24,0,0,0,.36-.21V3.59a.24.24,0,0,0-.12-.21S8.4.46,8.33.5L1.11,4.64,1,4.72Z" fill="#949494" /><path d="M13.3,13.14,8.56,15.87a.35.35,0,0,1-.11,0v1.6a.2.2,0,0,0,.11,0l5-2.86a.24.24,0,0,0,.12-.2V13.35A.24.24,0,0,0,13.3,13.14Z" fill="#949494" /><path d="M8.45,15.9a.31.31,0,0,1-.13,0L2.5,12.47a.22.22,0,0,1-.12-.2V5.7a.27.27,0,0,1,0-.12L1,4.72a.28.28,0,0,0,0,.13v8.27a.24.24,0,0,0,.11.21l7.22,4.14a.24.24,0,0,0,.12,0Z" fill="#b3b3b3" /></svg><text x="295" y="146.0" font-size="13.5" font-weight="700" fill="#e9eff6" text-anchor="start">Group</text><text x="295" y="164.225" font-size="13.5" font-weight="700" fill="#e9eff6" text-anchor="start">Policy</text><text x="295" y="179.0" font-size="11" font-weight="400" fill="#aab8c7" text-anchor="start">Computer and</text><text x="295" y="192.75" font-size="11" font-weight="400" fill="#aab8c7" text-anchor="start">user policy</text><rect x="75" y="280" width="150" height="100" rx="8" fill="#1b2636" stroke="#33465c" stroke-width="1.2"/><svg x="89" y="297" width="34" height="34" viewBox="0 0 18 18"><defs><linearGradient id="i3-f34d9569-2bd0-4002-8f16-3d01d8106cb5" x1="8.88" y1="12.21" x2="8.88" y2="0.21" gradientUnits="userSpaceOnUse"><stop offset="0" stop-color="#0078d4" /><stop offset="0.82" stop-color="#5ea0ef" /></linearGradient><linearGradient id="i3-bdb45a0b-eb58-4970-a60a-fb2ce314f866" x1="8.88" y1="16.84" x2="8.88" y2="12.21" gradientUnits="userSpaceOnUse"><stop offset="0.15" stop-color="#ccc" /><stop offset="1" stop-color="#707070" /></linearGradient></defs><title>Icon-compute-21</title><rect x="-0.12" y="0.21" width="18" height="12" rx="0.6" fill="url(#i3-f34d9569-2bd0-4002-8f16-3d01d8106cb5)" /><polygon points="11.88 4.46 11.88 7.95 8.88 9.71 8.88 6.21 11.88 4.46" fill="#50e6ff" /><polygon points="11.88 4.46 8.88 6.22 5.88 4.46 8.88 2.71 11.88 4.46" fill="#c3f1ff" /><polygon points="8.88 6.22 8.88 9.71 5.88 7.95 5.88 4.46 8.88 6.22" fill="#9cebff" /><polygon points="5.88 7.95 8.88 6.21 8.88 9.71 5.88 7.95" fill="#c3f1ff" /><polygon points="11.88 7.95 8.88 6.21 8.88 9.71 11.88 7.95" fill="#9cebff" /><path d="M12.49,15.84c-1.78-.28-1.85-1.56-1.85-3.63H7.11c0,2.07-.06,3.35-1.84,3.63a1,1,0,0,0-.89,1h9A1,1,0,0,0,12.49,15.84Z" fill="url(#i3-bdb45a0b-eb58-4970-a60a-fb2ce314f866)" /></svg><text x="135" y="311.0" font-size="13.5" font-weight="700" fill="#e9eff6" text-anchor="start">Computer</text><text x="135" y="329.225" font-size="13.5" font-weight="700" fill="#e9eff6" text-anchor="start">accounts</text><text x="135" y="344.0" font-size="12" font-weight="400" fill="#aab8c7" text-anchor="start">Domain-joined</text><text x="135" y="359.0" font-size="12" font-weight="400" fill="#aab8c7" text-anchor="start">devices</text><rect x="235" y="280" width="150" height="100" rx="8" fill="#1b2636" stroke="#33465c" stroke-width="1.2"/><svg x="249" y="297" width="34" height="34" viewBox="0 0 18 18"><defs><linearGradient id="i4-a26c9420-22ea-437d-963a-d91a07052fe8" x1="9" y1="17.5" x2="9" y2="0.5" gradientUnits="userSpaceOnUse"><stop offset="0" stop-color="#005ba1" /><stop offset="0.168" stop-color="#0063ae" /><stop offset="0.577" stop-color="#0072ca" /><stop offset="0.815" stop-color="#0078d4" /></linearGradient></defs><g id="i4-f18b5d86-430f-4653-9c0f-da3405ab6e83"><g><circle cx="9" cy="9" r="8.5" fill="url(#i4-a26c9420-22ea-437d-963a-d91a07052fe8)" /><path id="i4-ecfad4cd-858a-4086-9001-2b8defa8f20e" d="M7.776,10.632h2.448V13.08H7.776ZM4.92,7.368H7.368V4.92H5.262a.341.341,0,0,0-.342.342Zm.342,5.712H7.368V10.632H4.92v2.106a.341.341,0,0,0,.342.342ZM4.92,10.224H7.368V7.776H4.92Zm5.712,2.856h2.106a.341.341,0,0,0,.342-.342V10.632H10.632ZM7.776,10.224h2.448V7.776H7.776Zm2.856,0H13.08V7.776H10.632Zm0-5.3V7.368H13.08V5.262a.341.341,0,0,0-.342-.342ZM7.776,7.368h2.448V4.92H7.776Z" fill="#fff" /></g></g></svg><text x="295" y="311.0" font-size="13.5" font-weight="700" fill="#e9eff6" text-anchor="start">Windows</text><text x="295" y="329.225" font-size="13.5" font-weight="700" fill="#e9eff6" text-anchor="start">apps</text><text x="295" y="344.0" font-size="12" font-weight="400" fill="#aab8c7" text-anchor="start">Windows</text><text x="295" y="359.0" font-size="12" font-weight="400" fill="#aab8c7" text-anchor="start">auth</text><rect x="625" y="115" width="150" height="112" rx="8" fill="#1b2636" stroke="#33465c" stroke-width="1.2"/><circle cx="642" cy="133" r="10" fill="#4aa3f0"/><text x="642" y="136.96" font-size="11" font-weight="700" fill="#0b1724" text-anchor="middle">3</text><svg x="669" y="132" width="34" height="34" viewBox="0 0 18 18"><path d="m3.802,14.032c.388.242,1.033.511,1.715.511.621,0,1.198-.18,1.676-.487,0,0,.001,0,.002-.001l1.805-1.128v4.073c-.286,0-.574-.078-.824-.234l-4.374-2.734Z" fill="#225086"/>
  <path d="m7.853,1.507L.353,9.967c-.579.654-.428,1.642.323,2.111,0,0,2.776,1.735,3.126,1.954.388.242,1.033.511,1.715.511.621,0,1.198-.18,1.676-.487,0,0,.001,0,.002-.001l1.805-1.128-4.364-2.728,4.365-4.924V1s0,0,0,0c-.424,0-.847.169-1.147.507Z" fill="#6df"/>
  <polygon points="4.636 10.199 4.688 10.231 9 12.927 9.001 12.927 9.001 12.927 9.001 5.276 9 5.275 4.636 10.199" fill="#cbf8ff"/>
  <path d="m17.324,12.078c.751-.469.902-1.457.323-2.111l-4.921-5.551c-.397-.185-.842-.291-1.313-.291-.925,0-1.752.399-2.302,1.026l-.109.123h0s4.364,4.924,4.364,4.924h0s0,0,0,0l-4.365,2.728v4.073c.287,0,.573-.078.823-.234l7.5-4.688Z" fill="#074793"/>
  <path d="m9.001,1v4.275s.109-.123.109-.123c.55-.627,1.377-1.026,2.302-1.026.472,0,.916.107,1.313.291l-2.579-2.909c-.299-.338-.723-.507-1.146-.507Z" fill="#0294e4"/>
  <polygon points="13.365 10.199 13.365 10.199 13.365 10.199 9.001 5.276 9.001 12.926 13.365 10.199" fill="#96bcc2"/>
</svg><text x="715" y="146.0" font-size="13.5" font-weight="700" fill="#e9eff6" text-anchor="start">Entra</text><text x="715" y="164.225" font-size="13.5" font-weight="700" fill="#e9eff6" text-anchor="start">ID</text><text x="715" y="179.0" font-size="11" font-weight="400" fill="#aab8c7" text-anchor="start">OIDC,</text><text x="715" y="192.75" font-size="11" font-weight="400" fill="#aab8c7" text-anchor="start">OAuth,</text><text x="715" y="206.5" font-size="11" font-weight="400" fill="#aab8c7" text-anchor="start">SAML</text><rect x="785" y="115" width="150" height="100" rx="8" fill="#1b2636" stroke="#33465c" stroke-width="1.2"/><svg x="799" y="132" width="34" height="34" viewBox="0 0 18 18"><defs><linearGradient id="i6-a7f731a9-5c58-44f4-8037-3c3627e98008" x1="8.45" y1="11.47" x2="8.45" y2="6.24" gradientUnits="userSpaceOnUse"><stop offset="0" stop-color="#198ab3" /><stop offset="0.16" stop-color="#1f9ac2" /><stop offset="0.5" stop-color="#29bade" /><stop offset="0.8" stop-color="#30cdef" /><stop offset="1" stop-color="#32d4f5" /></linearGradient></defs><title>Icon-manage-316</title><ellipse cx="8.45" cy="8.85" rx="2.6" ry="2.61" fill="url(#i6-a7f731a9-5c58-44f4-8037-3c3627e98008)" /><ellipse cx="15.73" cy="4.77" rx="1.27" ry="1.28" fill="#32bedd" /><ellipse cx="15.73" cy="8.95" rx="1.27" ry="1.28" fill="#32bedd" /><ellipse cx="15.73" cy="13.12" rx="1.27" ry="1.28" fill="#32bedd" /><ellipse cx="12.83" cy="6.91" rx="1.27" ry="1.28" fill="#50e6ff" /><ellipse cx="12.83" cy="11.09" rx="1.27" ry="1.28" fill="#50e6ff" /><path d="M2.41,5.58A.24.24,0,0,1,2.5,5.5L8.32,2.11c.08,0,5,2.78,5,2.78a.24.24,0,0,0,.36-.21V3.59a.24.24,0,0,0-.12-.21S8.4.46,8.33.5L1.11,4.64,1,4.72Z" fill="#949494" /><path d="M13.3,13.14,8.56,15.87a.35.35,0,0,1-.11,0v1.6a.2.2,0,0,0,.11,0l5-2.86a.24.24,0,0,0,.12-.2V13.35A.24.24,0,0,0,13.3,13.14Z" fill="#949494" /><path d="M8.45,15.9a.31.31,0,0,1-.13,0L2.5,12.47a.22.22,0,0,1-.12-.2V5.7a.27.27,0,0,1,0-.12L1,4.72a.28.28,0,0,0,0,.13v8.27a.24.24,0,0,0,.11.21l7.22,4.14a.24.24,0,0,0,.12,0Z" fill="#b3b3b3" /></svg><text x="845" y="146.0" font-size="13.5" font-weight="700" fill="#e9eff6" text-anchor="start">Conditional</text><text x="845" y="164.225" font-size="13.5" font-weight="700" fill="#e9eff6" text-anchor="start">Access</text><text x="845" y="179.0" font-size="12" font-weight="400" fill="#aab8c7" text-anchor="start">Sign-in</text><text x="845" y="194.0" font-size="12" font-weight="400" fill="#aab8c7" text-anchor="start">policy</text><rect x="625" y="280" width="150" height="100" rx="8" fill="#1b2636" stroke="#33465c" stroke-width="1.2"/><svg x="639" y="297" width="34" height="34" viewBox="0 0 18 18"><defs><linearGradient id="i7-f97360fa-fd13-420b-9b43-74b8dde83a11" x1="6.7" y1="7.26" x2="6.7" y2="18.36" gradientUnits="userSpaceOnUse"><stop offset="0.22" stop-color="#32d4f5" /><stop offset="1" stop-color="#198ab3" /></linearGradient><linearGradient id="i7-b2ab4071-529d-4450-9443-e6dc0939cc4e" x1="6.42" y1="1.32" x2="7.23" y2="11.39" gradientUnits="userSpaceOnUse"><stop offset="0.22" stop-color="#32d4f5" /><stop offset="1" stop-color="#198ab3" /></linearGradient></defs><title>Icon-identity-223</title><path d="M17.22,13.92a.79.79,0,0,0,.8-.79A.28.28,0,0,0,18,13c-.31-2.5-1.74-4.54-4.46-4.54S9.35,10.22,9.07,13a.81.81,0,0,0,.72.88h7.43Z" fill="#0078d4" /><path d="M13.55,9.09a2.44,2.44,0,0,1-1.36-.4l1.35,3.52,1.33-3.49A2.54,2.54,0,0,1,13.55,9.09Z" fill="#fff" opacity="0.8" /><circle cx="13.55" cy="6.58" r="2.51" fill="#0078d4" /><path d="M12.19,16.36a1.19,1.19,0,0,0,1.19-1.19.66.66,0,0,0,0-.14c-.47-3.74-2.6-6.78-6.66-6.78S.44,10.83,0,15a1.2,1.2,0,0,0,1.07,1.31h11.1Z" fill="url(#i7-f97360fa-fd13-420b-9b43-74b8dde83a11)" /><path d="M6.77,9.14a3.72,3.72,0,0,1-2-.6l2,5.25,2-5.21A3.81,3.81,0,0,1,6.77,9.14Z" fill="#fff" opacity="0.8" /><circle cx="6.74" cy="5.39" r="3.75" fill="url(#i7-b2ab4071-529d-4450-9443-e6dc0939cc4e)" /></svg><text x="685" y="311.0" font-size="13.5" font-weight="700" fill="#e9eff6" text-anchor="start">Device</text><text x="685" y="329.225" font-size="13.5" font-weight="700" fill="#e9eff6" text-anchor="start">objects</text><text x="685" y="344.0" font-size="12" font-weight="400" fill="#aab8c7" text-anchor="start">Joined or</text><text x="685" y="359.0" font-size="12" font-weight="400" fill="#aab8c7" text-anchor="start">registered</text><rect x="785" y="280" width="150" height="100" rx="8" fill="#1b2636" stroke="#33465c" stroke-width="1.2"/><svg x="799" y="297" width="34" height="34" viewBox="0 0 18 18"><defs><linearGradient id="i8-aaede26b-698f-4a65-b6db-859d207e2da6" x1="8.05" y1="11.32" x2="8.05" y2="1.26" gradientUnits="userSpaceOnUse"><stop offset="0" stop-color="#0078d4" /><stop offset="0.82" stop-color="#5ea0ef" /></linearGradient><linearGradient id="i8-bc54987f-34ba-4701-8ce4-6eca10aff9e9" x1="8.05" y1="15.21" x2="8.05" y2="11.32" gradientUnits="userSpaceOnUse"><stop offset="0" stop-color="#1490df" /><stop offset="0.98" stop-color="#1f56a3" /></linearGradient><linearGradient id="i8-a5434fd8-c18c-472c-be91-f2aa070858b7" x1="8.05" y1="7.87" x2="8.05" y2="4.94" gradientUnits="userSpaceOnUse"><stop offset="0" stop-color="#d2ebff" /><stop offset="1" stop-color="#f0fffd" /></linearGradient></defs><title>Icon-intune-329</title><rect x="0.5" y="1.26" width="15.1" height="10.06" rx="0.5" fill="url(#i8-aaede26b-698f-4a65-b6db-859d207e2da6)" /><rect x="1.34" y="2.1" width="13.42" height="8.39" rx="0.28" fill="#fff" /><path d="M11.08,14.37c-1.5-.23-1.56-1.31-1.55-3h-3c0,1.74-.06,2.82-1.55,3a.87.87,0,0,0-.74.84h7.54A.88.88,0,0,0,11.08,14.37Z" fill="url(#i8-bc54987f-34ba-4701-8ce4-6eca10aff9e9)" /><path d="M17.17,5.91H10.29a2.31,2.31,0,1,0,0,.92H11v9.58a.33.33,0,0,0,.33.33h5.83a.33.33,0,0,0,.33-.33V6.24A.33.33,0,0,0,17.17,5.91Z" fill="#32bedd" /><rect x="11.62" y="6.82" width="5.27" height="8.7" rx="0.12" fill="#fff" /><circle cx="8.05" cy="6.41" r="1.46" opacity="0.9" fill="url(#i8-a5434fd8-c18c-472c-be91-f2aa070858b7)" /><path d="M14.88,10.82,13.76,9.7a.06.06,0,0,0-.1.05v.68a.06.06,0,0,1-.06.06H11v.83H13.6a.06.06,0,0,1,.06.06v.69a.06.06,0,0,0,.1,0L14.88,11A.12.12,0,0,0,14.88,10.82Z" fill="#0078d4" /></svg><text x="845" y="311.0" font-size="13.5" font-weight="700" fill="#e9eff6" text-anchor="start">Microsoft</text><text x="845" y="329.225" font-size="13.5" font-weight="700" fill="#e9eff6" text-anchor="start">Intune</text><text x="845" y="344.0" font-size="12" font-weight="400" fill="#aab8c7" text-anchor="start">Device</text><text x="845" y="359.0" font-size="12" font-weight="400" fill="#aab8c7" text-anchor="start">management</text><rect x="705" y="430" width="150" height="100" rx="8" fill="#1b2636" stroke="#33465c" stroke-width="1.2"/><svg x="719" y="447" width="34" height="34" viewBox="0 0 18 18"><defs><linearGradient id="i9-a26c9420-22ea-437d-963a-d91a07052fe8" x1="9" y1="17.5" x2="9" y2="0.5" gradientUnits="userSpaceOnUse"><stop offset="0" stop-color="#005ba1" /><stop offset="0.168" stop-color="#0063ae" /><stop offset="0.577" stop-color="#0072ca" /><stop offset="0.815" stop-color="#0078d4" /></linearGradient></defs><g id="i9-f18b5d86-430f-4653-9c0f-da3405ab6e83"><g><circle cx="9" cy="9" r="8.5" fill="url(#i9-a26c9420-22ea-437d-963a-d91a07052fe8)" /><path id="i9-ecfad4cd-858a-4086-9001-2b8defa8f20e" d="M7.776,10.632h2.448V13.08H7.776ZM4.92,7.368H7.368V4.92H5.262a.341.341,0,0,0-.342.342Zm.342,5.712H7.368V10.632H4.92v2.106a.341.341,0,0,0,.342.342ZM4.92,10.224H7.368V7.776H4.92Zm5.712,2.856h2.106a.341.341,0,0,0,.342-.342V10.632H10.632ZM7.776,10.224h2.448V7.776H7.776Zm2.856,0H13.08V7.776H10.632Zm0-5.3V7.368H13.08V5.262a.341.341,0,0,0-.342-.342ZM7.776,7.368h2.448V4.92H7.776Z" fill="#fff" /></g></g></svg><text x="765" y="461.0" font-size="13.5" font-weight="700" fill="#e9eff6" text-anchor="start">Cloud apps</text><text x="765" y="484.0" font-size="12" font-weight="400" fill="#aab8c7" text-anchor="start">Microsoft</text><text x="765" y="499.0" font-size="12" font-weight="400" fill="#aab8c7" text-anchor="start">365 and SaaS</text><rect x="425" y="250" width="150" height="120" rx="8" fill="#1b2636" stroke="#33465c" stroke-width="1.2"/><circle cx="442" cy="268" r="10" fill="#4aa3f0"/><text x="442" y="271.96" font-size="11" font-weight="700" fill="#0b1724" text-anchor="middle">2</text><svg x="469" y="267" width="34" height="34" viewBox="0 0 18 18"><path d="m3.802,14.032c.388.242,1.033.511,1.715.511.621,0,1.198-.18,1.676-.487,0,0,.001,0,.002-.001l1.805-1.128v4.073c-.286,0-.574-.078-.824-.234l-4.374-2.734Z" fill="#225086"/>
  <path d="m7.853,1.507L.353,9.967c-.579.654-.428,1.642.323,2.111,0,0,2.776,1.735,3.126,1.954.388.242,1.033.511,1.715.511.621,0,1.198-.18,1.676-.487,0,0,.001,0,.002-.001l1.805-1.128-4.364-2.728,4.365-4.924V1s0,0,0,0c-.424,0-.847.169-1.147.507Z" fill="#6df"/>
  <polygon points="4.636 10.199 4.688 10.231 9 12.927 9.001 12.927 9.001 12.927 9.001 5.276 9 5.275 4.636 10.199" fill="#cbf8ff"/>
  <path d="m17.324,12.078c.751-.469.902-1.457.323-2.111l-4.921-5.551c-.397-.185-.842-.291-1.313-.291-.925,0-1.752.399-2.302,1.026l-.109.123h0s4.364,4.924,4.364,4.924h0s0,0,0,0l-4.365,2.728v4.073c.287,0,.573-.078.823-.234l7.5-4.688Z" fill="#074793"/>
  <path d="m9.001,1v4.275s.109-.123.109-.123c.55-.627,1.377-1.026,2.302-1.026.472,0,.916.107,1.313.291l-2.579-2.909c-.299-.338-.723-.507-1.146-.507Z" fill="#0294e4"/>
  <polygon points="13.365 10.199 13.365 10.199 13.365 10.199 9.001 5.276 9.001 12.926 13.365 10.199" fill="#96bcc2"/>
</svg><text x="515" y="281.0" font-size="12" font-weight="700" fill="#e9eff6" text-anchor="start">Sync</text><text x="515" y="304.0" font-size="12" font-weight="400" fill="#aab8c7" text-anchor="start">Connect</text><text x="515" y="319.0" font-size="12" font-weight="400" fill="#aab8c7" text-anchor="start">Sync or</text><text x="515" y="334.0" font-size="12" font-weight="400" fill="#aab8c7" text-anchor="start">Cloud</text><text x="515" y="349.0" font-size="12" font-weight="400" fill="#aab8c7" text-anchor="start">Sync</text><path d="M150,380 L150,405 L500,405 L500,370" fill="none" stroke="#4aa3f0" stroke-width="1.7" stroke-linejoin="round" stroke-linecap="round" marker-end="url(#arrow)"/><path d="M575,330 L625,330" fill="none" stroke="#4aa3f0" stroke-width="1.7" stroke-linejoin="round" stroke-linecap="round" marker-end="url(#arrow)"/><path d="M150,227 L150,250 L310,250 L310,280" fill="none" stroke="#4aa3f0" stroke-width="1.7" stroke-linejoin="round" stroke-linecap="round" marker-end="url(#arrow)"/></svg>
