<svg xmlns="http://www.w3.org/2000/svg" xmlns:xlink="http://www.w3.org/1999/xlink" viewBox="0 25 1000 685" width="1000" height="685" font-family="'Segoe UI', 'Segoe UI Variable', system-ui, -apple-system, 'Helvetica Neue', Arial, sans-serif" role="img" aria-labelledby="t d"><title id="t">Credentials on a signed-in session host</title><desc id="d">A Microsoft Entra joined session host holds a Primary Refresh Token and a partial TGT from Microsoft Entra ID, access tokens for cloud apps, a Microsoft Entra Kerberos ticket for Azure Files, and a full TGT from a domain controller for on-premises resources.</desc><defs><marker id="arrow" viewBox="0 0 10 10" refX="9" refY="5" markerWidth="7" markerHeight="7" orient="auto-start-reverse"><path d="M0,0 L10,5 L0,10 z" fill="#0f6cbd"/></marker><marker id="arrow-dashed" viewBox="0 0 10 10" refX="9" refY="5" markerWidth="7" markerHeight="7" orient="auto-start-reverse"><path d="M0,0 L10,5 L0,10 z" fill="#6f93bf"/></marker></defs><rect x="320" y="60" width="360" height="615" rx="12" fill="#f4f6f9" stroke="#d3dbe4" stroke-width="1.2"/><text x="336" y="84" font-size="12.5" font-weight="700" fill="#0f548c" text-anchor="start">Microsoft Entra joined session host</text><rect x="40" y="110" width="230" height="110" rx="8" fill="#ffffff" stroke="#cfd8e2" stroke-width="1.2"/><svg x="54" y="127" width="34" height="34" viewBox="0 0 18 18"><path d="m3.802,14.032c.388.242,1.033.511,1.715.511.621,0,1.198-.18,1.676-.487,0,0,.001,0,.002-.001l1.805-1.128v4.073c-.286,0-.574-.078-.824-.234l-4.374-2.734Z" fill="#225086"/>
  <path d="m7.853,1.507L.353,9.967c-.579.654-.428,1.642.323,2.111,0,0,2.776,1.735,3.126,1.954.388.242,1.033.511,1.715.511.621,0,1.198-.18,1.676-.487,0,0,.001,0,.002-.001l1.805-1.128-4.364-2.728,4.365-4.924V1s0,0,0,0c-.424,0-.847.169-1.147.507Z" fill="#6df"/>
  <polygon points="4.636 10.199 4.688 10.231 9 12.927 9.001 12.927 9.001 12.927 9.001 5.276 9 5.275 4.636 10.199" fill="#cbf8ff"/>
  <path d="m17.324,12.078c.751-.469.902-1.457.323-2.111l-4.921-5.551c-.397-.185-.842-.291-1.313-.291-.925,0-1.752.399-2.302,1.026l-.109.123h0s4.364,4.924,4.364,4.924h0s0,0,0,0l-4.365,2.728v4.073c.287,0,.573-.078.823-.234l7.5-4.688Z" fill="#074793"/>
  <path d="m9.001,1v4.275s.109-.123.109-.123c.55-.627,1.377-1.026,2.302-1.026.472,0,.916.107,1.313.291l-2.579-2.909c-.299-.338-.723-.507-1.146-.507Z" fill="#0294e4"/>
  <polygon points="13.365 10.199 13.365 10.199 13.365 10.199 9.001 5.276 9.001 12.926 13.365 10.199" fill="#96bcc2"/>
</svg><text x="100" y="141.0" font-size="13.5" font-weight="700" fill="#0b2a4a" text-anchor="start">Microsoft Entra ID</text><text x="100" y="164.0" font-size="12" font-weight="400" fill="#3f4f60" text-anchor="start">Issues the PRT and a</text><text x="100" y="179.0" font-size="12" font-weight="400" fill="#3f4f60" text-anchor="start">partial TGT</text><rect x="350" y="110" width="300" height="110" rx="8" fill="#ffffff" stroke="#cfd8e2" stroke-width="1.2"/><svg x="364" y="127" width="34" height="34" viewBox="0 0 18 18"><path d="m3.802,14.032c.388.242,1.033.511,1.715.511.621,0,1.198-.18,1.676-.487,0,0,.001,0,.002-.001l1.805-1.128v4.073c-.286,0-.574-.078-.824-.234l-4.374-2.734Z" fill="#225086"/>
  <path d="m7.853,1.507L.353,9.967c-.579.654-.428,1.642.323,2.111,0,0,2.776,1.735,3.126,1.954.388.242,1.033.511,1.715.511.621,0,1.198-.18,1.676-.487,0,0,.001,0,.002-.001l1.805-1.128-4.364-2.728,4.365-4.924V1s0,0,0,0c-.424,0-.847.169-1.147.507Z" fill="#6df"/>
  <polygon points="4.636 10.199 4.688 10.231 9 12.927 9.001 12.927 9.001 12.927 9.001 5.276 9 5.275 4.636 10.199" fill="#cbf8ff"/>
  <path d="m17.324,12.078c.751-.469.902-1.457.323-2.111l-4.921-5.551c-.397-.185-.842-.291-1.313-.291-.925,0-1.752.399-2.302,1.026l-.109.123h0s4.364,4.924,4.364,4.924h0s0,0,0,0l-4.365,2.728v4.073c.287,0,.573-.078.823-.234l7.5-4.688Z" fill="#074793"/>
  <path d="m9.001,1v4.275s.109-.123.109-.123c.55-.627,1.377-1.026,2.302-1.026.472,0,.916.107,1.313.291l-2.579-2.909c-.299-.338-.723-.507-1.146-.507Z" fill="#0294e4"/>
  <polygon points="13.365 10.199 13.365 10.199 13.365 10.199 9.001 5.276 9.001 12.926 13.365 10.199" fill="#96bcc2"/>
</svg><text x="410" y="141.0" font-size="13.5" font-weight="700" fill="#0b2a4a" text-anchor="start">Primary Refresh Token</text><text x="410" y="164.0" font-size="12" font-weight="400" fill="#3f4f60" text-anchor="start">Plus a partial TGT for AD DS</text><rect x="350" y="255" width="300" height="110" rx="8" fill="#ffffff" stroke="#cfd8e2" stroke-width="1.2"/><svg x="364" y="272" width="34" height="34" viewBox="0 0 18 18"><defs><linearGradient id="i3-a26c9420-22ea-437d-963a-d91a07052fe8" x1="9" y1="17.5" x2="9" y2="0.5" gradientUnits="userSpaceOnUse"><stop offset="0" stop-color="#005ba1" /><stop offset="0.168" stop-color="#0063ae" /><stop offset="0.577" stop-color="#0072ca" /><stop offset="0.815" stop-color="#0078d4" /></linearGradient></defs><g id="i3-f18b5d86-430f-4653-9c0f-da3405ab6e83"><g><circle cx="9" cy="9" r="8.5" fill="url(#i3-a26c9420-22ea-437d-963a-d91a07052fe8)" /><path id="i3-ecfad4cd-858a-4086-9001-2b8defa8f20e" d="M7.776,10.632h2.448V13.08H7.776ZM4.92,7.368H7.368V4.92H5.262a.341.341,0,0,0-.342.342Zm.342,5.712H7.368V10.632H4.92v2.106a.341.341,0,0,0,.342.342ZM4.92,10.224H7.368V7.776H4.92Zm5.712,2.856h2.106a.341.341,0,0,0,.342-.342V10.632H10.632ZM7.776,10.224h2.448V7.776H7.776Zm2.856,0H13.08V7.776H10.632Zm0-5.3V7.368H13.08V5.262a.341.341,0,0,0-.342-.342ZM7.776,7.368h2.448V4.92H7.776Z" fill="#fff" /></g></g></svg><text x="410" y="286.0" font-size="13.5" font-weight="700" fill="#0b2a4a" text-anchor="start">Access tokens</text><text x="410" y="309.0" font-size="12" font-weight="400" fill="#3f4f60" text-anchor="start">One per app, from the PRT</text><rect x="730" y="255" width="230" height="110" rx="8" fill="#ffffff" stroke="#cfd8e2" stroke-width="1.2"/><svg x="744" y="272" width="34" height="34" viewBox="0 0 18 18"><defs><linearGradient id="i4-a26c9420-22ea-437d-963a-d91a07052fe8" x1="9" y1="17.5" x2="9" y2="0.5" gradientUnits="userSpaceOnUse"><stop offset="0" stop-color="#005ba1" /><stop offset="0.168" stop-color="#0063ae" /><stop offset="0.577" stop-color="#0072ca" /><stop offset="0.815" stop-color="#0078d4" /></linearGradient></defs><g id="i4-f18b5d86-430f-4653-9c0f-da3405ab6e83"><g><circle cx="9" cy="9" r="8.5" fill="url(#i4-a26c9420-22ea-437d-963a-d91a07052fe8)" /><path id="i4-ecfad4cd-858a-4086-9001-2b8defa8f20e" d="M7.776,10.632h2.448V13.08H7.776ZM4.92,7.368H7.368V4.92H5.262a.341.341,0,0,0-.342.342Zm.342,5.712H7.368V10.632H4.92v2.106a.341.341,0,0,0,.342.342ZM4.92,10.224H7.368V7.776H4.92Zm5.712,2.856h2.106a.341.341,0,0,0,.342-.342V10.632H10.632ZM7.776,10.224h2.448V7.776H7.776Zm2.856,0H13.08V7.776H10.632Zm0-5.3V7.368H13.08V5.262a.341.341,0,0,0-.342-.342ZM7.776,7.368h2.448V4.92H7.776Z" fill="#fff" /></g></g></svg><text x="790" y="286.0" font-size="13.5" font-weight="700" fill="#0b2a4a" text-anchor="start">Microsoft 365</text><text x="790" y="309.0" font-size="12" font-weight="400" fill="#3f4f60" text-anchor="start">Cloud apps accept the</text><text x="790" y="324.0" font-size="12" font-weight="400" fill="#3f4f60" text-anchor="start">tokens</text><rect x="350" y="400" width="300" height="110" rx="8" fill="#ffffff" stroke="#cfd8e2" stroke-width="1.2"/><svg x="364" y="417" width="34" height="34" viewBox="0 0 18 18"><defs><linearGradient id="i5-ba3d4428-273b-47d2-80ac-53671019b795" x1="-1267.23" y1="3.07" x2="-1267.52" y2="14.64" gradientTransform="matrix(-1, 0, 0, 1, -1256.13, 0)" gradientUnits="userSpaceOnUse"><stop offset="0" stop-color="#32d4f5" /><stop offset="0.23" stop-color="#31d0f1" /><stop offset="0.46" stop-color="#2cc3e6" /><stop offset="0.7" stop-color="#25afd4" /><stop offset="0.94" stop-color="#1c92ba" /><stop offset="1" stop-color="#198ab3" /></linearGradient></defs><g id="i5-bce83c25-9afe-4c01-b0b0-4312ccacb0c8"><g><path d="M17.28,3.9h-.91a4.16,4.16,0,0,0-.55,0,.68.68,0,0,1-.59-1l.39-.7a1.83,1.83,0,0,0-.51-.29l-.93,1.66a.7.7,0,0,1-.6.35h-.83a.66.66,0,0,0-.32.08h0L10.86,5a.25.25,0,0,1-.16,0H5.27A.29.29,0,0,0,5,5.32v4.82l-1.75.54.13.56L5,11V13.9a.29.29,0,0,0,.29.29h9.37l1.15,1.49.49-.31-.68-1.18h1.68a.29.29,0,0,0,.3-.29V4.2A.3.3,0,0,0,17.28,3.9Z" fill="#005ba1" /><circle cx="15.88" cy="1.08" r="1.09" fill="#50e5ff" /><circle cx="16.58" cy="16.59" r="1.42" fill="#50e5ff" /><circle cx="1.77" cy="11.44" r="1.77" fill="#50e5ff" /><g><path d="M15.17,4.75l-6.91-1H8.12a1,1,0,0,0-1,.87L6.86,6.31H16L16,5.9A1,1,0,0,0,15.17,4.75Z" fill="#0078d4" /><path d="M15.1,5.18l-6.9-1H8.11a.58.58,0,0,0-.57.5L7.3,6.31h8.22l.07-.47A.58.58,0,0,0,15.1,5.18Z" fill="#fff" /></g><path d="M5.26,5h6.05a.33.33,0,0,1,.21.09l1,1a.29.29,0,0,0,.21.09h4.6a.3.3,0,0,1,.3.29V13.9a.3.3,0,0,1-.3.29h-12A.29.29,0,0,1,5,13.9V5.32A.3.3,0,0,1,5.26,5Z" fill="url(#i5-ba3d4428-273b-47d2-80ac-53671019b795)" /></g></g></svg><text x="410" y="431.0" font-size="13.5" font-weight="700" fill="#0b2a4a" text-anchor="start">Azure Files ticket</text><text x="410" y="454.0" font-size="12" font-weight="400" fill="#3f4f60" text-anchor="start">From Microsoft Entra Kerberos</text><rect x="730" y="400" width="230" height="110" rx="8" fill="#ffffff" stroke="#cfd8e2" stroke-width="1.2"/><svg x="744" y="417" width="34" height="34" viewBox="0 0 18 18"><defs><linearGradient id="i6-ba3d4428-273b-47d2-80ac-53671019b795" x1="-1267.23" y1="3.07" x2="-1267.52" y2="14.64" gradientTransform="matrix(-1, 0, 0, 1, -1256.13, 0)" gradientUnits="userSpaceOnUse"><stop offset="0" stop-color="#32d4f5" /><stop offset="0.23" stop-color="#31d0f1" /><stop offset="0.46" stop-color="#2cc3e6" /><stop offset="0.7" stop-color="#25afd4" /><stop offset="0.94" stop-color="#1c92ba" /><stop offset="1" stop-color="#198ab3" /></linearGradient></defs><g id="i6-bce83c25-9afe-4c01-b0b0-4312ccacb0c8"><g><path d="M17.28,3.9h-.91a4.16,4.16,0,0,0-.55,0,.68.68,0,0,1-.59-1l.39-.7a1.83,1.83,0,0,0-.51-.29l-.93,1.66a.7.7,0,0,1-.6.35h-.83a.66.66,0,0,0-.32.08h0L10.86,5a.25.25,0,0,1-.16,0H5.27A.29.29,0,0,0,5,5.32v4.82l-1.75.54.13.56L5,11V13.9a.29.29,0,0,0,.29.29h9.37l1.15,1.49.49-.31-.68-1.18h1.68a.29.29,0,0,0,.3-.29V4.2A.3.3,0,0,0,17.28,3.9Z" fill="#005ba1" /><circle cx="15.88" cy="1.08" r="1.09" fill="#50e5ff" /><circle cx="16.58" cy="16.59" r="1.42" fill="#50e5ff" /><circle cx="1.77" cy="11.44" r="1.77" fill="#50e5ff" /><g><path d="M15.17,4.75l-6.91-1H8.12a1,1,0,0,0-1,.87L6.86,6.31H16L16,5.9A1,1,0,0,0,15.17,4.75Z" fill="#0078d4" /><path d="M15.1,5.18l-6.9-1H8.11a.58.58,0,0,0-.57.5L7.3,6.31h8.22l.07-.47A.58.58,0,0,0,15.1,5.18Z" fill="#fff" /></g><path d="M5.26,5h6.05a.33.33,0,0,1,.21.09l1,1a.29.29,0,0,0,.21.09h4.6a.3.3,0,0,1,.3.29V13.9a.3.3,0,0,1-.3.29h-12A.29.29,0,0,1,5,13.9V5.32A.3.3,0,0,1,5.26,5Z" fill="url(#i6-ba3d4428-273b-47d2-80ac-53671019b795)" /></g></g></svg><text x="790" y="431.0" font-size="13.5" font-weight="700" fill="#0b2a4a" text-anchor="start">Azure Files</text><text x="790" y="454.0" font-size="12" font-weight="400" fill="#3f4f60" text-anchor="start">FSLogix profile share</text><rect x="40" y="545" width="230" height="110" rx="8" fill="#ffffff" stroke="#cfd8e2" stroke-width="1.2"/><svg x="54" y="562" width="34" height="34" viewBox="0 0 18 18"><defs><linearGradient id="i7-uuid-f86ec683-0476-4385-a089-b5dcad587aad" x1="7.697" y1="779.107" x2="14.082" y2="786.57" gradientTransform="translate(0 791.516) scale(1 -1)" gradientUnits="userSpaceOnUse"><stop offset="0" stop-color="#225086" /><stop offset="1" stop-color="#0055c5" /></linearGradient><linearGradient id="i7-uuid-e422b264-2789-4744-82bd-0e3fd46a156e" x1="6.364" y1="778.103" x2="6.364" y2="794.351" gradientTransform="translate(0 791.516) scale(1 -1)" gradientUnits="userSpaceOnUse"><stop offset="0" stop-color="#6df" /><stop offset="1" stop-color="#0294e4" /></linearGradient><linearGradient id="i7-uuid-d74a81cd-bed3-408d-982d-4138865ce227" x1="9.001" y1="775.895" x2="9.001" y2="794.784" gradientTransform="translate(0 791.516) scale(1 -1)" gradientUnits="userSpaceOnUse"><stop offset="0" stop-color="#44dbf9" /><stop offset="1" stop-color="#cbf8ff" /></linearGradient><linearGradient id="i7-uuid-30674763-cae5-42ba-a84b-66be33b27883" x1="13.5" y1="774.66" x2="13.5" y2="790.721" gradientTransform="translate(0 791.516) scale(1 -1)" gradientUnits="userSpaceOnUse"><stop offset="0" stop-color="#041642" /><stop offset="1" stop-color="#041642" stop-opacity=".25" /></linearGradient></defs><g><path d="m17.647,9.967L10.147,1.506c-.599-.676-1.694-.676-2.294,0L.353,9.967c-.579.654-.428,1.641.323,2.111l7.499,4.688c.5.313,1.148.313,1.648,0l7.499-4.688c.751-.469.902-1.457.323-2.111h0Z" fill="url(#i7-uuid-f86ec683-0476-4385-a089-b5dcad587aad)" stroke-width="0" /><path d="m10.148,1.506c-.599-.676-1.694-.676-2.294,0L.354,9.967c-.579.654-.428,1.641.323,2.111,0,0,2.776,1.735,3.126,1.954.388.242,1.033.511,1.715.511.621,0,1.197-.18,1.676-.487,0,0,0,0,.002-.001l1.804-1.128-4.364-2.728,4.474-5.047c.55-.627,1.377-1.026,2.302-1.026.472,0,.917.107,1.314.292l-2.579-2.909v-.002Z" fill="url(#i7-uuid-e422b264-2789-4744-82bd-0e3fd46a156e)" stroke-width="0" /><polygon points="4.636 10.199 4.688 10.231 9.001 12.927 9.001 12.927 13.365 10.199 13.366 10.199 13.365 10.199 9.001 5.274 4.636 10.199" fill="url(#i7-uuid-d74a81cd-bed3-408d-982d-4138865ce227)" stroke-width="0" /><path d="m9.001,17c.287,0,.574-.078.824-.234l7.499-4.688c.751-.469.902-1.457.323-2.111L10.148,1.506c-.3-.338-.723-.507-1.147-.507v16.001Z" fill="url(#i7-uuid-30674763-cae5-42ba-a84b-66be33b27883)" fill-opacity=".5" isolation="isolate" opacity=".5" stroke-width="0" /></g><g><polygon points="12.925 8.752 8.37 15.131 12.925 16.985 17.48 15.131 12.925 8.752" fill="#773adc" stroke-width="0" /><polygon points="12.925 8.752 8.37 15.131 12.925 16.985 12.925 8.752" fill="#f9f9f9" isolation="isolate" opacity=".5" stroke-width="0" /></g></svg><text x="100" y="576.0" font-size="13.5" font-weight="700" fill="#0b2a4a" text-anchor="start">Domain controller</text><text x="100" y="599.0" font-size="12" font-weight="400" fill="#3f4f60" text-anchor="start">Trades the partial TGT</text><text x="100" y="614.0" font-size="12" font-weight="400" fill="#3f4f60" text-anchor="start">for a full TGT</text><rect x="350" y="545" width="300" height="110" rx="8" fill="#ffffff" stroke="#cfd8e2" stroke-width="1.2"/><svg x="364" y="562" width="34" height="34" viewBox="0 0 18 18"><defs><linearGradient id="i8-uuid-f86ec683-0476-4385-a089-b5dcad587aad" x1="7.697" y1="779.107" x2="14.082" y2="786.57" gradientTransform="translate(0 791.516) scale(1 -1)" gradientUnits="userSpaceOnUse"><stop offset="0" stop-color="#225086" /><stop offset="1" stop-color="#0055c5" /></linearGradient><linearGradient id="i8-uuid-e422b264-2789-4744-82bd-0e3fd46a156e" x1="6.364" y1="778.103" x2="6.364" y2="794.351" gradientTransform="translate(0 791.516) scale(1 -1)" gradientUnits="userSpaceOnUse"><stop offset="0" stop-color="#6df" /><stop offset="1" stop-color="#0294e4" /></linearGradient><linearGradient id="i8-uuid-d74a81cd-bed3-408d-982d-4138865ce227" x1="9.001" y1="775.895" x2="9.001" y2="794.784" gradientTransform="translate(0 791.516) scale(1 -1)" gradientUnits="userSpaceOnUse"><stop offset="0" stop-color="#44dbf9" /><stop offset="1" stop-color="#cbf8ff" /></linearGradient><linearGradient id="i8-uuid-30674763-cae5-42ba-a84b-66be33b27883" x1="13.5" y1="774.66" x2="13.5" y2="790.721" gradientTransform="translate(0 791.516) scale(1 -1)" gradientUnits="userSpaceOnUse"><stop offset="0" stop-color="#041642" /><stop offset="1" stop-color="#041642" stop-opacity=".25" /></linearGradient></defs><g><path d="m17.647,9.967L10.147,1.506c-.599-.676-1.694-.676-2.294,0L.353,9.967c-.579.654-.428,1.641.323,2.111l7.499,4.688c.5.313,1.148.313,1.648,0l7.499-4.688c.751-.469.902-1.457.323-2.111h0Z" fill="url(#i8-uuid-f86ec683-0476-4385-a089-b5dcad587aad)" stroke-width="0" /><path d="m10.148,1.506c-.599-.676-1.694-.676-2.294,0L.354,9.967c-.579.654-.428,1.641.323,2.111,0,0,2.776,1.735,3.126,1.954.388.242,1.033.511,1.715.511.621,0,1.197-.18,1.676-.487,0,0,0,0,.002-.001l1.804-1.128-4.364-2.728,4.474-5.047c.55-.627,1.377-1.026,2.302-1.026.472,0,.917.107,1.314.292l-2.579-2.909v-.002Z" fill="url(#i8-uuid-e422b264-2789-4744-82bd-0e3fd46a156e)" stroke-width="0" /><polygon points="4.636 10.199 4.688 10.231 9.001 12.927 9.001 12.927 13.365 10.199 13.366 10.199 13.365 10.199 9.001 5.274 4.636 10.199" fill="url(#i8-uuid-d74a81cd-bed3-408d-982d-4138865ce227)" stroke-width="0" /><path d="m9.001,17c.287,0,.574-.078.824-.234l7.499-4.688c.751-.469.902-1.457.323-2.111L10.148,1.506c-.3-.338-.723-.507-1.147-.507v16.001Z" fill="url(#i8-uuid-30674763-cae5-42ba-a84b-66be33b27883)" fill-opacity=".5" isolation="isolate" opacity=".5" stroke-width="0" /></g><g><polygon points="12.925 8.752 8.37 15.131 12.925 16.985 17.48 15.131 12.925 8.752" fill="#773adc" stroke-width="0" /><polygon points="12.925 8.752 8.37 15.131 12.925 16.985 12.925 8.752" fill="#f9f9f9" isolation="isolate" opacity=".5" stroke-width="0" /></g></svg><text x="410" y="576.0" font-size="13.5" font-weight="700" fill="#0b2a4a" text-anchor="start">Full TGT</text><text x="410" y="599.0" font-size="12" font-weight="400" fill="#3f4f60" text-anchor="start">Gets service tickets from the domain</text><text x="410" y="614.0" font-size="12" font-weight="400" fill="#3f4f60" text-anchor="start">controller</text><rect x="730" y="545" width="230" height="110" rx="8" fill="#ffffff" stroke="#cfd8e2" stroke-width="1.2"/><svg x="744" y="562" width="34" height="34" viewBox="0 0 18 18"><defs><linearGradient id="i9-ad4c4f96-09aa-4f91-ba10-5cb8ad530f74" x1="9" y1="15.83" x2="9" y2="5.79" gradientUnits="userSpaceOnUse"><stop offset="0" stop-color="#b3b3b3" /><stop offset="0.26" stop-color="#c1c1c1" /><stop offset="1" stop-color="#e6e6e6" /></linearGradient></defs><title>Icon-storage-86</title><path d="M.5,5.79h17a0,0,0,0,1,0,0v9.48a.57.57,0,0,1-.57.57H1.07a.57.57,0,0,1-.57-.57V5.79A0,0,0,0,1,.5,5.79Z" fill="url(#i9-ad4c4f96-09aa-4f91-ba10-5cb8ad530f74)" /><path d="M1.07,2.17H16.93a.57.57,0,0,1,.57.57V5.79a0,0,0,0,1,0,0H.5a0,0,0,0,1,0,0V2.73A.57.57,0,0,1,1.07,2.17Z" fill="#37c2b1" /><path d="M2.81,6.89H15.18a.27.27,0,0,1,.26.27v1.4a.27.27,0,0,1-.26.27H2.81a.27.27,0,0,1-.26-.27V7.16A.27.27,0,0,1,2.81,6.89Z" fill="#fff" /><path d="M2.82,9.68H15.19a.27.27,0,0,1,.26.27v1.41a.27.27,0,0,1-.26.27H2.82a.27.27,0,0,1-.26-.27V10A.27.27,0,0,1,2.82,9.68Z" fill="#37c2b1" /><path d="M2.82,12.5H15.19a.27.27,0,0,1,.26.27v1.41a.27.27,0,0,1-.26.27H2.82a.27.27,0,0,1-.26-.27V12.77A.27.27,0,0,1,2.82,12.5Z" fill="#258277" /></svg><text x="790" y="576.0" font-size="13.5" font-weight="700" fill="#0b2a4a" text-anchor="start">On-premises app</text><text x="790" y="599.0" font-size="12" font-weight="400" fill="#3f4f60" text-anchor="start">Accepts the service</text><text x="790" y="614.0" font-size="12" font-weight="400" fill="#3f4f60" text-anchor="start">ticket</text><path d="M270,165 L350,165" fill="none" stroke="#0f6cbd" stroke-width="1.7" stroke-linejoin="round" stroke-linecap="round" marker-end="url(#arrow)"/><path d="M500,220 L500,255" fill="none" stroke="#0f6cbd" stroke-width="1.7" stroke-linejoin="round" stroke-linecap="round" marker-end="url(#arrow)"/><path d="M650,310 L730,310" fill="none" stroke="#0f6cbd" stroke-width="1.7" stroke-linejoin="round" stroke-linecap="round" marker-end="url(#arrow)"/><path d="M155,220 L155,455 L350,455" fill="none" stroke="#0f6cbd" stroke-width="1.7" stroke-linejoin="round" stroke-linecap="round" marker-end="url(#arrow)"/><path d="M650,455 L730,455" fill="none" stroke="#0f6cbd" stroke-width="1.7" stroke-linejoin="round" stroke-linecap="round" marker-end="url(#arrow)"/><path d="M270,600 L350,600" fill="none" stroke="#0f6cbd" stroke-width="1.7" stroke-linejoin="round" stroke-linecap="round" marker-end="url(#arrow)"/><path d="M650,600 L730,600" fill="none" stroke="#0f6cbd" stroke-width="1.7" stroke-linejoin="round" stroke-linecap="round" marker-end="url(#arrow)"/><circle cx="295" cy="165" r="11" fill="#0f6cbd"/><text x="295" y="169.5" font-size="12.5" font-weight="700" fill="#ffffff" text-anchor="middle">1</text><circle cx="500" cy="237.5" r="11" fill="#0f6cbd"/><text x="500" y="242.0" font-size="12.5" font-weight="700" fill="#ffffff" text-anchor="middle">2</text><circle cx="155" cy="335" r="11" fill="#0f6cbd"/><text x="155" y="339.5" font-size="12.5" font-weight="700" fill="#ffffff" text-anchor="middle">3</text><circle cx="295" cy="600" r="11" fill="#0f6cbd"/><text x="295" y="604.5" font-size="12.5" font-weight="700" fill="#ffffff" text-anchor="middle">4</text><circle cx="705" cy="600" r="11" fill="#0f6cbd"/><text x="705" y="604.5" font-size="12.5" font-weight="700" fill="#ffffff" text-anchor="middle">5</text></svg>
