<svg xmlns="http://www.w3.org/2000/svg" xmlns:xlink="http://www.w3.org/1999/xlink" viewBox="0 37 1000 642" width="1000" height="642" font-family="'Segoe UI', 'Segoe UI Variable', system-ui, -apple-system, 'Helvetica Neue', Arial, sans-serif" role="img" aria-labelledby="t d"><title id="t">Multi-region resilience pattern</title><desc id="d">Primary and secondary regions protect the state that matters: profiles, packages, images, configuration and monitoring. Pooled session hosts are rebuilt rather than replicated.</desc><defs><marker id="arrow" viewBox="0 0 10 10" refX="9" refY="5" markerWidth="7" markerHeight="7" orient="auto-start-reverse"><path d="M0,0 L10,5 L0,10 z" fill="#0f6cbd"/></marker><marker id="arrow-dashed" viewBox="0 0 10 10" refX="9" refY="5" markerWidth="7" markerHeight="7" orient="auto-start-reverse"><path d="M0,0 L10,5 L0,10 z" fill="#6f93bf"/></marker></defs><rect x="60" y="72" width="395" height="475" rx="12" fill="#f4f6f9" stroke="#d3dbe4" stroke-width="1.2"/><text x="76" y="96" font-size="12.5" font-weight="700" fill="#0f548c" text-anchor="start">Primary region</text><rect x="545" y="72" width="395" height="475" rx="12" fill="#f4f6f9" stroke="#d3dbe4" stroke-width="1.2"/><text x="561" y="96" font-size="12.5" font-weight="700" fill="#0f548c" text-anchor="start">Secondary region</text><rect x="90" y="122" width="155" height="100" rx="8" fill="#ffffff" stroke="#cfd8e2" stroke-width="1.2"/><svg x="104" y="139" width="34" height="34" viewBox="0 0 18 18"><defs><linearGradient id="i1-b7b52328-afea-4ae3-a11b-e21cf942d33d" x1="9" y1="17.5" x2="9" y2="0.5" gradientUnits="userSpaceOnUse"><stop offset="0" stop-color="#005ba1" /><stop offset="0.168" stop-color="#0063ae" /><stop offset="0.577" stop-color="#0072ca" /><stop offset="0.815" stop-color="#0078d4" /></linearGradient></defs><g id="i1-f296cd5a-787e-4f7b-ae7d-f8e4c512e403"><g><circle cx="9" cy="9" r="8.5" fill="url(#i1-b7b52328-afea-4ae3-a11b-e21cf942d33d)" /><g id="i1-b26dad0a-3648-4f5e-b5e8-d86f08f4d08c"><g id="i1-bf235d1c-b690-40eb-8a79-cf880451778d"><g id="i1-bcd9163a-c4d8-4e54-8c97-4a109bf64f75"><path id="i1-e49dfb7e-134a-43bd-83fc-ab356cb14af0" d="M13.046,6.635v4.709L8.984,13.707V8.992Z" fill="#32bedd" /></g><g id="i1-a5b973ff-f0b7-405d-8643-344e4c6197bf"><path id="i1-b4b89f14-a55a-428c-a4ac-415feb735142" d="M13.046,6.635,8.99,9,4.928,6.635,8.99,4.272Z" fill="#9cebff" /></g><g id="i1-adac1240-6aa9-4f15-96e4-37e67d1c6c71"><path id="i1-f65d8fa4-1c52-4beb-89ef-75de96e9143e" d="M8.984,9v4.709L4.928,11.344V6.635Z" fill="#50e6ff" /></g><path id="i1-b5d243da-3c58-4a56-96f0-5072c268eecc" d="M4.928,11.344,8.984,8.992v4.715Z" fill="#9cebff" /><path id="i1-f11f8f15-8a95-4259-8c1e-cffcafd2ea60" d="M13.046,11.344,8.984,8.992v4.715Z" fill="#50e6ff" /></g></g></g></g></svg><text x="150" y="153.0" font-size="12.5" font-weight="700" fill="#0b2a4a" text-anchor="start">Primary</text><text x="150" y="169.875" font-size="12.5" font-weight="700" fill="#0b2a4a" text-anchor="start">host pool</text><text x="150" y="186.0" font-size="12" font-weight="400" fill="#3f4f60" text-anchor="start">Regional pool</text><rect x="275" y="122" width="145" height="100" rx="8" fill="#ffffff" stroke="#cfd8e2" stroke-width="1.2"/><svg x="289" y="139" width="34" height="34" viewBox="0 0 18 18"><defs><linearGradient id="i2-f34d9569-2bd0-4002-8f16-3d01d8106cb5" x1="8.88" y1="12.21" x2="8.88" y2="0.21" gradientUnits="userSpaceOnUse"><stop offset="0" stop-color="#0078d4" /><stop offset="0.82" stop-color="#5ea0ef" /></linearGradient><linearGradient id="i2-bdb45a0b-eb58-4970-a60a-fb2ce314f866" x1="8.88" y1="16.84" x2="8.88" y2="12.21" gradientUnits="userSpaceOnUse"><stop offset="0.15" stop-color="#ccc" /><stop offset="1" stop-color="#707070" /></linearGradient></defs><title>Icon-compute-21</title><rect x="-0.12" y="0.21" width="18" height="12" rx="0.6" fill="url(#i2-f34d9569-2bd0-4002-8f16-3d01d8106cb5)" /><polygon points="11.88 4.46 11.88 7.95 8.88 9.71 8.88 6.21 11.88 4.46" fill="#50e6ff" /><polygon points="11.88 4.46 8.88 6.22 5.88 4.46 8.88 2.71 11.88 4.46" fill="#c3f1ff" /><polygon points="8.88 6.22 8.88 9.71 5.88 7.95 5.88 4.46 8.88 6.22" fill="#9cebff" /><polygon points="5.88 7.95 8.88 6.21 8.88 9.71 5.88 7.95" fill="#c3f1ff" /><polygon points="11.88 7.95 8.88 6.21 8.88 9.71 11.88 7.95" fill="#9cebff" /><path d="M12.49,15.84c-1.78-.28-1.85-1.56-1.85-3.63H7.11c0,2.07-.06,3.35-1.84,3.63a1,1,0,0,0-.89,1h9A1,1,0,0,0,12.49,15.84Z" fill="url(#i2-bdb45a0b-eb58-4970-a60a-fb2ce314f866)" /></svg><text x="335" y="153.0" font-size="13.5" font-weight="700" fill="#0b2a4a" text-anchor="start">Session</text><text x="335" y="171.225" font-size="13.5" font-weight="700" fill="#0b2a4a" text-anchor="start">hosts</text><text x="335" y="186.0" font-size="12" font-weight="400" fill="#3f4f60" text-anchor="start">Rebuilt</text><rect x="90" y="265" width="155" height="100" rx="8" fill="#ffffff" stroke="#cfd8e2" stroke-width="1.2"/><svg x="104" y="282" width="34" height="34" viewBox="0 0 18 18"><defs><linearGradient id="i3-ba3d4428-273b-47d2-80ac-53671019b795" x1="-1267.23" y1="3.07" x2="-1267.52" y2="14.64" gradientTransform="matrix(-1, 0, 0, 1, -1256.13, 0)" gradientUnits="userSpaceOnUse"><stop offset="0" stop-color="#32d4f5" /><stop offset="0.23" stop-color="#31d0f1" /><stop offset="0.46" stop-color="#2cc3e6" /><stop offset="0.7" stop-color="#25afd4" /><stop offset="0.94" stop-color="#1c92ba" /><stop offset="1" stop-color="#198ab3" /></linearGradient></defs><g id="i3-bce83c25-9afe-4c01-b0b0-4312ccacb0c8"><g><path d="M17.28,3.9h-.91a4.16,4.16,0,0,0-.55,0,.68.68,0,0,1-.59-1l.39-.7a1.83,1.83,0,0,0-.51-.29l-.93,1.66a.7.7,0,0,1-.6.35h-.83a.66.66,0,0,0-.32.08h0L10.86,5a.25.25,0,0,1-.16,0H5.27A.29.29,0,0,0,5,5.32v4.82l-1.75.54.13.56L5,11V13.9a.29.29,0,0,0,.29.29h9.37l1.15,1.49.49-.31-.68-1.18h1.68a.29.29,0,0,0,.3-.29V4.2A.3.3,0,0,0,17.28,3.9Z" fill="#005ba1" /><circle cx="15.88" cy="1.08" r="1.09" fill="#50e5ff" /><circle cx="16.58" cy="16.59" r="1.42" fill="#50e5ff" /><circle cx="1.77" cy="11.44" r="1.77" fill="#50e5ff" /><g><path d="M15.17,4.75l-6.91-1H8.12a1,1,0,0,0-1,.87L6.86,6.31H16L16,5.9A1,1,0,0,0,15.17,4.75Z" fill="#0078d4" /><path d="M15.1,5.18l-6.9-1H8.11a.58.58,0,0,0-.57.5L7.3,6.31h8.22l.07-.47A.58.58,0,0,0,15.1,5.18Z" fill="#fff" /></g><path d="M5.26,5h6.05a.33.33,0,0,1,.21.09l1,1a.29.29,0,0,0,.21.09h4.6a.3.3,0,0,1,.3.29V13.9a.3.3,0,0,1-.3.29h-12A.29.29,0,0,1,5,13.9V5.32A.3.3,0,0,1,5.26,5Z" fill="url(#i3-ba3d4428-273b-47d2-80ac-53671019b795)" /></g></g></svg><text x="150" y="296.0" font-size="13.5" font-weight="700" fill="#0b2a4a" text-anchor="start">Profiles</text><text x="150" y="319.0" font-size="12" font-weight="400" fill="#3f4f60" text-anchor="start">Protected</text><text x="150" y="334.0" font-size="12" font-weight="400" fill="#3f4f60" text-anchor="start">share</text><rect x="275" y="265" width="145" height="100" rx="8" fill="#ffffff" stroke="#cfd8e2" stroke-width="1.2"/><svg x="289" y="282" width="34" height="34" viewBox="0 0 18 18"><defs><linearGradient id="i4-ba3d4428-273b-47d2-80ac-53671019b795" x1="-1267.23" y1="3.07" x2="-1267.52" y2="14.64" gradientTransform="matrix(-1, 0, 0, 1, -1256.13, 0)" gradientUnits="userSpaceOnUse"><stop offset="0" stop-color="#32d4f5" /><stop offset="0.23" stop-color="#31d0f1" /><stop offset="0.46" stop-color="#2cc3e6" /><stop offset="0.7" stop-color="#25afd4" /><stop offset="0.94" stop-color="#1c92ba" /><stop offset="1" stop-color="#198ab3" /></linearGradient></defs><g id="i4-bce83c25-9afe-4c01-b0b0-4312ccacb0c8"><g><path d="M17.28,3.9h-.91a4.16,4.16,0,0,0-.55,0,.68.68,0,0,1-.59-1l.39-.7a1.83,1.83,0,0,0-.51-.29l-.93,1.66a.7.7,0,0,1-.6.35h-.83a.66.66,0,0,0-.32.08h0L10.86,5a.25.25,0,0,1-.16,0H5.27A.29.29,0,0,0,5,5.32v4.82l-1.75.54.13.56L5,11V13.9a.29.29,0,0,0,.29.29h9.37l1.15,1.49.49-.31-.68-1.18h1.68a.29.29,0,0,0,.3-.29V4.2A.3.3,0,0,0,17.28,3.9Z" fill="#005ba1" /><circle cx="15.88" cy="1.08" r="1.09" fill="#50e5ff" /><circle cx="16.58" cy="16.59" r="1.42" fill="#50e5ff" /><circle cx="1.77" cy="11.44" r="1.77" fill="#50e5ff" /><g><path d="M15.17,4.75l-6.91-1H8.12a1,1,0,0,0-1,.87L6.86,6.31H16L16,5.9A1,1,0,0,0,15.17,4.75Z" fill="#0078d4" /><path d="M15.1,5.18l-6.9-1H8.11a.58.58,0,0,0-.57.5L7.3,6.31h8.22l.07-.47A.58.58,0,0,0,15.1,5.18Z" fill="#fff" /></g><path d="M5.26,5h6.05a.33.33,0,0,1,.21.09l1,1a.29.29,0,0,0,.21.09h4.6a.3.3,0,0,1,.3.29V13.9a.3.3,0,0,1-.3.29h-12A.29.29,0,0,1,5,13.9V5.32A.3.3,0,0,1,5.26,5Z" fill="url(#i4-ba3d4428-273b-47d2-80ac-53671019b795)" /></g></g></svg><text x="335" y="296.0" font-size="13.5" font-weight="700" fill="#0b2a4a" text-anchor="start">App</text><text x="335" y="314.225" font-size="13.5" font-weight="700" fill="#0b2a4a" text-anchor="start">packages</text><text x="335" y="329.0" font-size="12" font-weight="400" fill="#3f4f60" text-anchor="start">Replicated</text><text x="335" y="344.0" font-size="12" font-weight="400" fill="#3f4f60" text-anchor="start">share</text><rect x="170" y="410" width="170" height="100" rx="8" fill="#ffffff" stroke="#cfd8e2" stroke-width="1.2"/><svg x="184" y="427" width="34" height="34" viewBox="0 0 18 18"><defs><linearGradient id="i5-b9a9ff0b-7dac-405b-a6dd-a489a2813f83" x1="8.898" y1="16.345" x2="8.898" y2="1.887" gradientUnits="userSpaceOnUse"><stop offset="0.001" stop-color="#773adc" /><stop offset="1" stop-color="#a67af4" /></linearGradient></defs><g id="i5-b489344a-7430-4172-84c3-3a0d8c5a38b5"><g><g><path d="M7.855,2.526H7.247A.431.431,0,0,1,6.816,2.1V.431A.431.431,0,0,1,7.247,0h.608a.43.43,0,0,1,.43.431V2.1A.43.43,0,0,1,7.855,2.526ZM10.979,2.1V.431A.431.431,0,0,0,10.548,0H9.941A.431.431,0,0,0,9.51.431V2.1a.431.431,0,0,0,.431.431h.607A.431.431,0,0,0,10.979,2.1ZM8.285,17.612V16.338A.388.388,0,0,0,7.9,15.95H7.2a.388.388,0,0,0-.388.388v1.274A.388.388,0,0,0,7.2,18H7.9A.388.388,0,0,0,8.285,17.612Zm2.694,0V16.338a.388.388,0,0,0-.388-.388H9.9a.388.388,0,0,0-.388.388v1.274A.388.388,0,0,0,9.9,18h.693A.388.388,0,0,0,10.979,17.612Zm4.8-9.114h1.777A.445.445,0,0,0,18,8.053V7.46a.445.445,0,0,0-.445-.445H15.778a.445.445,0,0,0-.445.445v.593A.445.445,0,0,0,15.778,8.5Zm0,2.719h1.777A.445.445,0,0,0,18,10.772v-.594a.444.444,0,0,0-.445-.444H15.778a.444.444,0,0,0-.445.444v.594A.445.445,0,0,0,15.778,11.217ZM.385,8.5h1.23A.385.385,0,0,0,2,8.113V7.4a.385.385,0,0,0-.385-.385H.385A.385.385,0,0,0,0,7.4v.713A.385.385,0,0,0,.385,8.5Zm0,2.719h1.23A.385.385,0,0,0,2,10.832v-.713a.385.385,0,0,0-.385-.385H.385A.385.385,0,0,0,0,10.119v.713A.385.385,0,0,0,.385,11.217Z" fill="#773adc" /><rect x="1.734" y="1.887" width="14.327" height="14.458" rx="0.88" fill="url(#i5-b9a9ff0b-7dac-405b-a6dd-a489a2813f83)" /></g><g><polygon points="12.097 7.198 12.097 10.802 9.004 12.612 9.004 9 12.097 7.198" fill="#50e6ff" /><polygon points="12.097 7.198 9.004 9.008 5.903 7.198 9.004 5.388 12.097 7.198" fill="#c3f1ff" /><polygon points="9.004 9.008 9.004 12.612 5.903 10.802 5.903 7.198 9.004 9.008" fill="#9cebff" /><polygon points="5.903 10.802 9.004 9 9.004 12.612 5.903 10.802" fill="#c3f1ff" /><polygon points="12.097 10.802 9.004 9 9.004 12.612 12.097 10.802" fill="#9cebff" /></g></g></g></svg><text x="230" y="441.0" font-size="13.5" font-weight="700" fill="#0b2a4a" text-anchor="start">Image</text><text x="230" y="459.225" font-size="13.5" font-weight="700" fill="#0b2a4a" text-anchor="start">versions</text><text x="230" y="474.0" font-size="12" font-weight="400" fill="#3f4f60" text-anchor="start">Replicated</text><text x="230" y="489.0" font-size="12" font-weight="400" fill="#3f4f60" text-anchor="start">versions</text><rect x="575" y="122" width="155" height="100" rx="8" fill="#ffffff" stroke="#cfd8e2" stroke-width="1.2"/><svg x="589" y="139" width="34" height="34" viewBox="0 0 18 18"><defs><linearGradient id="i6-b7b52328-afea-4ae3-a11b-e21cf942d33d" x1="9" y1="17.5" x2="9" y2="0.5" gradientUnits="userSpaceOnUse"><stop offset="0" stop-color="#005ba1" /><stop offset="0.168" stop-color="#0063ae" /><stop offset="0.577" stop-color="#0072ca" /><stop offset="0.815" stop-color="#0078d4" /></linearGradient></defs><g id="i6-f296cd5a-787e-4f7b-ae7d-f8e4c512e403"><g><circle cx="9" cy="9" r="8.5" fill="url(#i6-b7b52328-afea-4ae3-a11b-e21cf942d33d)" /><g id="i6-b26dad0a-3648-4f5e-b5e8-d86f08f4d08c"><g id="i6-bf235d1c-b690-40eb-8a79-cf880451778d"><g id="i6-bcd9163a-c4d8-4e54-8c97-4a109bf64f75"><path id="i6-e49dfb7e-134a-43bd-83fc-ab356cb14af0" d="M13.046,6.635v4.709L8.984,13.707V8.992Z" fill="#32bedd" /></g><g id="i6-a5b973ff-f0b7-405d-8643-344e4c6197bf"><path id="i6-b4b89f14-a55a-428c-a4ac-415feb735142" d="M13.046,6.635,8.99,9,4.928,6.635,8.99,4.272Z" fill="#9cebff" /></g><g id="i6-adac1240-6aa9-4f15-96e4-37e67d1c6c71"><path id="i6-f65d8fa4-1c52-4beb-89ef-75de96e9143e" d="M8.984,9v4.709L4.928,11.344V6.635Z" fill="#50e6ff" /></g><path id="i6-b5d243da-3c58-4a56-96f0-5072c268eecc" d="M4.928,11.344,8.984,8.992v4.715Z" fill="#9cebff" /><path id="i6-f11f8f15-8a95-4259-8c1e-cffcafd2ea60" d="M13.046,11.344,8.984,8.992v4.715Z" fill="#50e6ff" /></g></g></g></g></svg><text x="635" y="153.0" font-size="12.5" font-weight="700" fill="#0b2a4a" text-anchor="start">Passive</text><text x="635" y="169.875" font-size="12.5" font-weight="700" fill="#0b2a4a" text-anchor="start">host pool</text><text x="635" y="186.0" font-size="12" font-weight="400" fill="#3f4f60" text-anchor="start">Regional pool</text><rect x="760" y="122" width="145" height="100" rx="8" fill="#ffffff" stroke="#cfd8e2" stroke-width="1.2"/><svg x="774" y="139" width="34" height="34" viewBox="0 0 18 18"><defs><linearGradient id="i7-f34d9569-2bd0-4002-8f16-3d01d8106cb5" x1="8.88" y1="12.21" x2="8.88" y2="0.21" gradientUnits="userSpaceOnUse"><stop offset="0" stop-color="#0078d4" /><stop offset="0.82" stop-color="#5ea0ef" /></linearGradient><linearGradient id="i7-bdb45a0b-eb58-4970-a60a-fb2ce314f866" x1="8.88" y1="16.84" x2="8.88" y2="12.21" gradientUnits="userSpaceOnUse"><stop offset="0.15" stop-color="#ccc" /><stop offset="1" stop-color="#707070" /></linearGradient></defs><title>Icon-compute-21</title><rect x="-0.12" y="0.21" width="18" height="12" rx="0.6" fill="url(#i7-f34d9569-2bd0-4002-8f16-3d01d8106cb5)" /><polygon points="11.88 4.46 11.88 7.95 8.88 9.71 8.88 6.21 11.88 4.46" fill="#50e6ff" /><polygon points="11.88 4.46 8.88 6.22 5.88 4.46 8.88 2.71 11.88 4.46" fill="#c3f1ff" /><polygon points="8.88 6.22 8.88 9.71 5.88 7.95 5.88 4.46 8.88 6.22" fill="#9cebff" /><polygon points="5.88 7.95 8.88 6.21 8.88 9.71 5.88 7.95" fill="#c3f1ff" /><polygon points="11.88 7.95 8.88 6.21 8.88 9.71 11.88 7.95" fill="#9cebff" /><path d="M12.49,15.84c-1.78-.28-1.85-1.56-1.85-3.63H7.11c0,2.07-.06,3.35-1.84,3.63a1,1,0,0,0-.89,1h9A1,1,0,0,0,12.49,15.84Z" fill="url(#i7-bdb45a0b-eb58-4970-a60a-fb2ce314f866)" /></svg><text x="820" y="153.0" font-size="13.5" font-weight="700" fill="#0b2a4a" text-anchor="start">Session</text><text x="820" y="171.225" font-size="13.5" font-weight="700" fill="#0b2a4a" text-anchor="start">hosts</text><text x="820" y="186.0" font-size="12" font-weight="400" fill="#3f4f60" text-anchor="start">Rebuilt</text><rect x="575" y="265" width="155" height="100" rx="8" fill="#ffffff" stroke="#cfd8e2" stroke-width="1.2"/><svg x="589" y="282" width="34" height="34" viewBox="0 0 18 18"><defs><linearGradient id="i8-ba3d4428-273b-47d2-80ac-53671019b795" x1="-1267.23" y1="3.07" x2="-1267.52" y2="14.64" gradientTransform="matrix(-1, 0, 0, 1, -1256.13, 0)" gradientUnits="userSpaceOnUse"><stop offset="0" stop-color="#32d4f5" /><stop offset="0.23" stop-color="#31d0f1" /><stop offset="0.46" stop-color="#2cc3e6" /><stop offset="0.7" stop-color="#25afd4" /><stop offset="0.94" stop-color="#1c92ba" /><stop offset="1" stop-color="#198ab3" /></linearGradient></defs><g id="i8-bce83c25-9afe-4c01-b0b0-4312ccacb0c8"><g><path d="M17.28,3.9h-.91a4.16,4.16,0,0,0-.55,0,.68.68,0,0,1-.59-1l.39-.7a1.83,1.83,0,0,0-.51-.29l-.93,1.66a.7.7,0,0,1-.6.35h-.83a.66.66,0,0,0-.32.08h0L10.86,5a.25.25,0,0,1-.16,0H5.27A.29.29,0,0,0,5,5.32v4.82l-1.75.54.13.56L5,11V13.9a.29.29,0,0,0,.29.29h9.37l1.15,1.49.49-.31-.68-1.18h1.68a.29.29,0,0,0,.3-.29V4.2A.3.3,0,0,0,17.28,3.9Z" fill="#005ba1" /><circle cx="15.88" cy="1.08" r="1.09" fill="#50e5ff" /><circle cx="16.58" cy="16.59" r="1.42" fill="#50e5ff" /><circle cx="1.77" cy="11.44" r="1.77" fill="#50e5ff" /><g><path d="M15.17,4.75l-6.91-1H8.12a1,1,0,0,0-1,.87L6.86,6.31H16L16,5.9A1,1,0,0,0,15.17,4.75Z" fill="#0078d4" /><path d="M15.1,5.18l-6.9-1H8.11a.58.58,0,0,0-.57.5L7.3,6.31h8.22l.07-.47A.58.58,0,0,0,15.1,5.18Z" fill="#fff" /></g><path d="M5.26,5h6.05a.33.33,0,0,1,.21.09l1,1a.29.29,0,0,0,.21.09h4.6a.3.3,0,0,1,.3.29V13.9a.3.3,0,0,1-.3.29h-12A.29.29,0,0,1,5,13.9V5.32A.3.3,0,0,1,5.26,5Z" fill="url(#i8-ba3d4428-273b-47d2-80ac-53671019b795)" /></g></g></svg><text x="635" y="296.0" font-size="13.5" font-weight="700" fill="#0b2a4a" text-anchor="start">Profiles</text><text x="635" y="319.0" font-size="12" font-weight="400" fill="#3f4f60" text-anchor="start">Protected</text><text x="635" y="334.0" font-size="12" font-weight="400" fill="#3f4f60" text-anchor="start">share</text><rect x="760" y="265" width="145" height="100" rx="8" fill="#ffffff" stroke="#cfd8e2" stroke-width="1.2"/><svg x="774" y="282" width="34" height="34" viewBox="0 0 18 18"><defs><linearGradient id="i9-ba3d4428-273b-47d2-80ac-53671019b795" x1="-1267.23" y1="3.07" x2="-1267.52" y2="14.64" gradientTransform="matrix(-1, 0, 0, 1, -1256.13, 0)" gradientUnits="userSpaceOnUse"><stop offset="0" stop-color="#32d4f5" /><stop offset="0.23" stop-color="#31d0f1" /><stop offset="0.46" stop-color="#2cc3e6" /><stop offset="0.7" stop-color="#25afd4" /><stop offset="0.94" stop-color="#1c92ba" /><stop offset="1" stop-color="#198ab3" /></linearGradient></defs><g id="i9-bce83c25-9afe-4c01-b0b0-4312ccacb0c8"><g><path d="M17.28,3.9h-.91a4.16,4.16,0,0,0-.55,0,.68.68,0,0,1-.59-1l.39-.7a1.83,1.83,0,0,0-.51-.29l-.93,1.66a.7.7,0,0,1-.6.35h-.83a.66.66,0,0,0-.32.08h0L10.86,5a.25.25,0,0,1-.16,0H5.27A.29.29,0,0,0,5,5.32v4.82l-1.75.54.13.56L5,11V13.9a.29.29,0,0,0,.29.29h9.37l1.15,1.49.49-.31-.68-1.18h1.68a.29.29,0,0,0,.3-.29V4.2A.3.3,0,0,0,17.28,3.9Z" fill="#005ba1" /><circle cx="15.88" cy="1.08" r="1.09" fill="#50e5ff" /><circle cx="16.58" cy="16.59" r="1.42" fill="#50e5ff" /><circle cx="1.77" cy="11.44" r="1.77" fill="#50e5ff" /><g><path d="M15.17,4.75l-6.91-1H8.12a1,1,0,0,0-1,.87L6.86,6.31H16L16,5.9A1,1,0,0,0,15.17,4.75Z" fill="#0078d4" /><path d="M15.1,5.18l-6.9-1H8.11a.58.58,0,0,0-.57.5L7.3,6.31h8.22l.07-.47A.58.58,0,0,0,15.1,5.18Z" fill="#fff" /></g><path d="M5.26,5h6.05a.33.33,0,0,1,.21.09l1,1a.29.29,0,0,0,.21.09h4.6a.3.3,0,0,1,.3.29V13.9a.3.3,0,0,1-.3.29h-12A.29.29,0,0,1,5,13.9V5.32A.3.3,0,0,1,5.26,5Z" fill="url(#i9-ba3d4428-273b-47d2-80ac-53671019b795)" /></g></g></svg><text x="820" y="296.0" font-size="13.5" font-weight="700" fill="#0b2a4a" text-anchor="start">App</text><text x="820" y="314.225" font-size="13.5" font-weight="700" fill="#0b2a4a" text-anchor="start">packages</text><text x="820" y="329.0" font-size="12" font-weight="400" fill="#3f4f60" text-anchor="start">Replicated</text><text x="820" y="344.0" font-size="12" font-weight="400" fill="#3f4f60" text-anchor="start">share</text><rect x="655" y="410" width="170" height="100" rx="8" fill="#ffffff" stroke="#cfd8e2" stroke-width="1.2"/><svg x="669" y="427" width="34" height="34" viewBox="0 0 18 18"><defs><linearGradient id="i10-b9a9ff0b-7dac-405b-a6dd-a489a2813f83" x1="8.898" y1="16.345" x2="8.898" y2="1.887" gradientUnits="userSpaceOnUse"><stop offset="0.001" stop-color="#773adc" /><stop offset="1" stop-color="#a67af4" /></linearGradient></defs><g id="i10-b489344a-7430-4172-84c3-3a0d8c5a38b5"><g><g><path d="M7.855,2.526H7.247A.431.431,0,0,1,6.816,2.1V.431A.431.431,0,0,1,7.247,0h.608a.43.43,0,0,1,.43.431V2.1A.43.43,0,0,1,7.855,2.526ZM10.979,2.1V.431A.431.431,0,0,0,10.548,0H9.941A.431.431,0,0,0,9.51.431V2.1a.431.431,0,0,0,.431.431h.607A.431.431,0,0,0,10.979,2.1ZM8.285,17.612V16.338A.388.388,0,0,0,7.9,15.95H7.2a.388.388,0,0,0-.388.388v1.274A.388.388,0,0,0,7.2,18H7.9A.388.388,0,0,0,8.285,17.612Zm2.694,0V16.338a.388.388,0,0,0-.388-.388H9.9a.388.388,0,0,0-.388.388v1.274A.388.388,0,0,0,9.9,18h.693A.388.388,0,0,0,10.979,17.612Zm4.8-9.114h1.777A.445.445,0,0,0,18,8.053V7.46a.445.445,0,0,0-.445-.445H15.778a.445.445,0,0,0-.445.445v.593A.445.445,0,0,0,15.778,8.5Zm0,2.719h1.777A.445.445,0,0,0,18,10.772v-.594a.444.444,0,0,0-.445-.444H15.778a.444.444,0,0,0-.445.444v.594A.445.445,0,0,0,15.778,11.217ZM.385,8.5h1.23A.385.385,0,0,0,2,8.113V7.4a.385.385,0,0,0-.385-.385H.385A.385.385,0,0,0,0,7.4v.713A.385.385,0,0,0,.385,8.5Zm0,2.719h1.23A.385.385,0,0,0,2,10.832v-.713a.385.385,0,0,0-.385-.385H.385A.385.385,0,0,0,0,10.119v.713A.385.385,0,0,0,.385,11.217Z" fill="#773adc" /><rect x="1.734" y="1.887" width="14.327" height="14.458" rx="0.88" fill="url(#i10-b9a9ff0b-7dac-405b-a6dd-a489a2813f83)" /></g><g><polygon points="12.097 7.198 12.097 10.802 9.004 12.612 9.004 9 12.097 7.198" fill="#50e6ff" /><polygon points="12.097 7.198 9.004 9.008 5.903 7.198 9.004 5.388 12.097 7.198" fill="#c3f1ff" /><polygon points="9.004 9.008 9.004 12.612 5.903 10.802 5.903 7.198 9.004 9.008" fill="#9cebff" /><polygon points="5.903 10.802 9.004 9 9.004 12.612 5.903 10.802" fill="#c3f1ff" /><polygon points="12.097 10.802 9.004 9 9.004 12.612 12.097 10.802" fill="#9cebff" /></g></g></g></svg><text x="715" y="441.0" font-size="13.5" font-weight="700" fill="#0b2a4a" text-anchor="start">Image</text><text x="715" y="459.225" font-size="13.5" font-weight="700" fill="#0b2a4a" text-anchor="start">versions</text><text x="715" y="474.0" font-size="12" font-weight="400" fill="#3f4f60" text-anchor="start">Replicated</text><text x="715" y="489.0" font-size="12" font-weight="400" fill="#3f4f60" text-anchor="start">versions</text><rect x="380" y="570" width="240" height="74" rx="8" fill="#ffffff" stroke="#cfd8e2" stroke-width="1.2"/><svg x="394" y="587" width="34" height="34" viewBox="0 0 18 18"><title>Icon-general-7</title><g><g><path d="M.5,15.08a.16.16,0,0,0,.08.14l1.16.65L3.7,17a.17.17,0,0,0,.23-.06l.66-1.12a.16.16,0,0,0-.06-.21l-2.3-1.3a.17.17,0,0,1-.08-.14V3.85a.16.16,0,0,1,.08-.14l2.3-1.3a.16.16,0,0,0,.06-.21L3.93,1.08A.17.17,0,0,0,3.7,1L1.78,2.11l-1.2.67a.16.16,0,0,0-.08.14V15.08Z" fill="#949494" /><path d="M2.14,3.77l.06-.06,2.3-1.3a.14.14,0,0,0,.06-.21L3.9,1.08A.15.15,0,0,0,3.68,1L1.75,2.11.56,2.78s-.05,0-.06.06l.9.51Z" fill="#a3a3a3" /><path d="M4.5,15.59l-2.3-1.3a.22.22,0,0,1-.07-.09l-1.62,1,.05,0,1.15.65,2,1.11a.15.15,0,0,0,.22-.06l.66-1.12A.14.14,0,0,0,4.5,15.59Z" fill="#a3a3a3" /></g><path d="M17.5,15.08a.16.16,0,0,1-.08.14l-1.16.65L14.3,17a.17.17,0,0,1-.23-.06l-.66-1.12a.16.16,0,0,1,.06-.21l2.3-1.3a.17.17,0,0,0,.08-.14V3.85a.16.16,0,0,0-.08-.14l-2.3-1.3a.16.16,0,0,1-.06-.21l.66-1.12A.17.17,0,0,1,14.3,1l1.92,1.09,1.2.67a.16.16,0,0,1,.08.14V15.08Z" fill="#949494" /><path d="M15.86,3.77l-.06-.06-2.3-1.3a.14.14,0,0,1-.06-.21l.66-1.12A.15.15,0,0,1,14.32,1l1.93,1.09,1.19.67s0,0,.06.06l-.9.51Z" fill="#a3a3a3" /><path d="M13.5,15.59l2.3-1.3a.22.22,0,0,0,.07-.09l1.62,1,0,0-1.15.65-2,1.11a.15.15,0,0,1-.22-.06l-.66-1.12A.14.14,0,0,1,13.5,15.59Z" fill="#a3a3a3" /><polygon points="14.31 5.93 14.31 12.07 8.99 15.16 8.99 9.01 14.31 5.93" fill="#32bedd" /><polygon points="14.31 5.93 9 9.02 3.68 5.93 9 2.84 14.31 5.93" fill="#9cebff" /><polygon points="8.99 9.02 8.99 15.16 3.68 12.07 3.68 5.93 8.99 9.02" fill="#50e6ff" /><polygon points="3.68 12.07 8.99 9.01 8.99 15.16 3.68 12.07" fill="#9cebff" /><polygon points="14.31 12.07 8.99 9.01 8.99 15.16 14.31 12.07" fill="#50e6ff" /></g></svg><text x="440" y="601.0" font-size="13.5" font-weight="700" fill="#0b2a4a" text-anchor="start">Infrastructure as code</text><text x="440" y="624.0" font-size="12" font-weight="400" fill="#3f4f60" text-anchor="start">Rebuilds the platform</text><path d="M245,172.0 L275,172.0" fill="none" stroke="#0f6cbd" stroke-width="1.7" stroke-linejoin="round" stroke-linecap="round" marker-end="url(#arrow)"/><path d="M730,172.0 L760,172.0" fill="none" stroke="#0f6cbd" stroke-width="1.7" stroke-linejoin="round" stroke-linecap="round" marker-end="url(#arrow)"/><path d="M245,315 L245,385 L575,385 L575,315" fill="none" stroke="#0f6cbd" stroke-width="1.7" stroke-linejoin="round" stroke-linecap="round" stroke-dasharray="6 5" marker-end="url(#arrow-dashed)"/><path d="M420,315 L420,390 L760,390 L760,315" fill="none" stroke="#0f6cbd" stroke-width="1.7" stroke-linejoin="round" stroke-linecap="round" stroke-dasharray="6 5" marker-end="url(#arrow-dashed)"/><path d="M340,460.0 L655,460.0" fill="none" stroke="#0f6cbd" stroke-width="1.7" stroke-linejoin="round" stroke-linecap="round" stroke-dasharray="6 5" marker-end="url(#arrow-dashed)"/><path d="M500,570 L500,535 L255,535 L255,510" fill="none" stroke="#0f6cbd" stroke-width="1.7" stroke-linejoin="round" stroke-linecap="round" stroke-dasharray="6 5" marker-end="url(#arrow-dashed)"/><path d="M500,570 L500,535 L740,535 L740,510" fill="none" stroke="#0f6cbd" stroke-width="1.7" stroke-linejoin="round" stroke-linecap="round" stroke-dasharray="6 5" marker-end="url(#arrow-dashed)"/><circle cx="500" cy="385" r="11" fill="#0f6cbd"/><text x="500" y="389.5" font-size="12.5" font-weight="700" fill="#ffffff" text-anchor="middle">1</text><circle cx="500" cy="460" r="11" fill="#0f6cbd"/><text x="500" y="464.5" font-size="12.5" font-weight="700" fill="#ffffff" text-anchor="middle">2</text><circle cx="500" cy="535" r="11" fill="#0f6cbd"/><text x="500" y="539.5" font-size="12.5" font-weight="700" fill="#ffffff" text-anchor="middle">3</text></svg>
