<svg xmlns="http://www.w3.org/2000/svg" xmlns:xlink="http://www.w3.org/1999/xlink" viewBox="0 35 1000 570" width="1000" height="570" font-family="'Segoe UI', 'Segoe UI Variable', system-ui, -apple-system, 'Helvetica Neue', Arial, sans-serif" role="img" aria-labelledby="t d"><title id="t">Private and public connectivity paths</title><desc id="d">Azure Virtual Desktop uses reverse connect by default, can use Private Link for private service access, and can use RDP Shortpath over managed networks or public STUN and TURN paths.</desc><defs><marker id="arrow" viewBox="0 0 10 10" refX="9" refY="5" markerWidth="7" markerHeight="7" orient="auto-start-reverse"><path d="M0,0 L10,5 L0,10 z" fill="#0f6cbd"/></marker><marker id="arrow-dashed" viewBox="0 0 10 10" refX="9" refY="5" markerWidth="7" markerHeight="7" orient="auto-start-reverse"><path d="M0,0 L10,5 L0,10 z" fill="#6f93bf"/></marker></defs><rect x="40" y="70" width="260" height="500" rx="12" fill="#f4f6f9" stroke="#d3dbe4" stroke-width="1.2"/><text x="56" y="94" font-size="12.5" font-weight="700" fill="#0f548c" text-anchor="start">Client networks</text><rect x="68" y="120" width="200" height="90" rx="8" fill="#ffffff" stroke="#cfd8e2" stroke-width="1.2"/><svg x="82" y="137" width="34" height="34" viewBox="0 0 18 18"><defs><linearGradient id="i1-be92901b-ec33-4c65-adf1-9b0eed06d677" x1="9" y1="6.88" x2="9" y2="20.45" gradientUnits="userSpaceOnUse"><stop offset="0.22" stop-color="#32d4f5" /><stop offset="1" stop-color="#198ab3" /></linearGradient><linearGradient id="i1-b46fc246-25d8-4398-8779-1042e8cacae7" x1="8.61" y1="-0.4" x2="9.6" y2="11.92" gradientUnits="userSpaceOnUse"><stop offset="0.22" stop-color="#32d4f5" /><stop offset="1" stop-color="#198ab3" /></linearGradient></defs><title>Icon-identity-230</title><path d="M15.72,18a1.45,1.45,0,0,0,1.45-1.45.47.47,0,0,0,0-.17C16.59,11.81,14,8.09,9,8.09S1.34,11.24.83,16.39A1.46,1.46,0,0,0,2.14,18H15.72Z" fill="url(#i1-be92901b-ec33-4c65-adf1-9b0eed06d677)" /><path d="M9,9.17a4.59,4.59,0,0,1-2.48-.73L9,14.86l2.44-6.38A4.53,4.53,0,0,1,9,9.17Z" fill="#fff" opacity="0.8" /><circle cx="9.01" cy="4.58" r="4.58" fill="url(#i1-b46fc246-25d8-4398-8779-1042e8cacae7)" /></svg><text x="128" y="151.0" font-size="13.5" font-weight="700" fill="#0b2a4a" text-anchor="start">Managed network</text><text x="128" y="169.225" font-size="13.5" font-weight="700" fill="#0b2a4a" text-anchor="start">users</text><text x="128" y="184.0" font-size="12" font-weight="400" fill="#3f4f60" text-anchor="start">ExpressRoute or VPN</text><rect x="68" y="310" width="200" height="90" rx="8" fill="#ffffff" stroke="#cfd8e2" stroke-width="1.2"/><svg x="82" y="327" width="34" height="34" viewBox="0 0 18 18"><defs><linearGradient id="i2-be92901b-ec33-4c65-adf1-9b0eed06d677" x1="9" y1="6.88" x2="9" y2="20.45" gradientUnits="userSpaceOnUse"><stop offset="0.22" stop-color="#32d4f5" /><stop offset="1" stop-color="#198ab3" /></linearGradient><linearGradient id="i2-b46fc246-25d8-4398-8779-1042e8cacae7" x1="8.61" y1="-0.4" x2="9.6" y2="11.92" gradientUnits="userSpaceOnUse"><stop offset="0.22" stop-color="#32d4f5" /><stop offset="1" stop-color="#198ab3" /></linearGradient></defs><title>Icon-identity-230</title><path d="M15.72,18a1.45,1.45,0,0,0,1.45-1.45.47.47,0,0,0,0-.17C16.59,11.81,14,8.09,9,8.09S1.34,11.24.83,16.39A1.46,1.46,0,0,0,2.14,18H15.72Z" fill="url(#i2-be92901b-ec33-4c65-adf1-9b0eed06d677)" /><path d="M9,9.17a4.59,4.59,0,0,1-2.48-.73L9,14.86l2.44-6.38A4.53,4.53,0,0,1,9,9.17Z" fill="#fff" opacity="0.8" /><circle cx="9.01" cy="4.58" r="4.58" fill="url(#i2-b46fc246-25d8-4398-8779-1042e8cacae7)" /></svg><text x="128" y="341.0" font-size="13.5" font-weight="700" fill="#0b2a4a" text-anchor="start">Internet users</text><text x="128" y="364.0" font-size="12" font-weight="400" fill="#3f4f60" text-anchor="start">Public client path</text><rect x="80" y="455" width="175" height="84" rx="8" fill="#ffffff" stroke="#cfd8e2" stroke-width="1.2"/><svg x="94" y="472" width="34" height="34" viewBox="0 0 18 18"><defs><linearGradient id="i3-bb37dfaa-4390-42b5-a627-52fd73968e3c" x1="5.33" y1="2.81" x2="8.74" y2="6.22" gradientTransform="translate(2.03 -1.37) rotate(-0.08)" gradientUnits="userSpaceOnUse"><stop offset="0" stop-color="#86d633" /><stop offset="1" stop-color="#5e9624" /></linearGradient><linearGradient id="i3-b0a858c9-0e98-4e4e-9ead-d7a0786c484b" x1="11.84" y1="14.54" x2="15.24" y2="17.95" gradientUnits="userSpaceOnUse"><stop offset="0" stop-color="#86d633" /><stop offset="1" stop-color="#5e9624" /></linearGradient><linearGradient id="i3-eee8ab19-1451-41df-b871-13f8a49d17d6" x1="-1.34" y1="14.53" x2="2.06" y2="17.93" gradientUnits="userSpaceOnUse"><stop offset="0" stop-color="#86d633" /><stop offset="1" stop-color="#5e9624" /></linearGradient></defs><title>Icon-networking-79</title><rect x="4.74" y="4.21" width="1.98" height="9.5" transform="translate(5.25 -1.66) rotate(30)" fill="#a67af4" /><rect x="11.21" y="4.37" width="1.98" height="9.5" transform="translate(-2.92 7.32) rotate(-30)" fill="#a67af4" /><rect x="7.9" y="9.97" width="1.98" height="9.5" transform="translate(23.61 5.82) rotate(90)" fill="#773adc" /><circle cx="9.07" cy="3.14" r="2.41" fill="url(#i3-bb37dfaa-4390-42b5-a627-52fd73968e3c)" /><circle cx="15.59" cy="14.86" r="2.41" fill="url(#i3-b0a858c9-0e98-4e4e-9ead-d7a0786c484b)" /><circle cx="2.41" cy="14.86" r="2.41" fill="url(#i3-eee8ab19-1451-41df-b871-13f8a49d17d6)" /></svg><text x="140" y="486.0" font-size="13.5" font-weight="700" fill="#0b2a4a" text-anchor="start">ExpressRoute</text><text x="140" y="504.225" font-size="13.5" font-weight="700" fill="#0b2a4a" text-anchor="start">or VPN</text><text x="140" y="519.0" font-size="12" font-weight="400" fill="#3f4f60" text-anchor="start">Private path</text><rect x="355" y="70" width="250" height="470" rx="12" fill="#eef4fb" stroke="#c6dbf0" stroke-width="1.2"/><text x="371" y="94" font-size="12.5" font-weight="700" fill="#0f548c" text-anchor="start">Microsoft-managed services</text><rect x="382" y="120" width="195" height="110" rx="8" fill="#ffffff" stroke="#cfd8e2" stroke-width="1.2"/><svg x="396" y="137" width="34" height="34" viewBox="0 0 18 18"><defs><linearGradient id="i4-fd061228-22be-425e-9131-0b8cca0e5d17" x1="7.699" y1="259.22" x2="7.699" y2="263.711" gradientTransform="translate(0 -250)" gradientUnits="userSpaceOnUse"><stop offset="0.23" stop-color="#5ea0ef" /><stop offset="0.32" stop-color="#5b9fee" /><stop offset="0.48" stop-color="#509aeb" /><stop offset="0.57" stop-color="#3f92e6" /><stop offset="0.75" stop-color="#2688df" /><stop offset="0.93" stop-color="#127fd9" /></linearGradient><linearGradient id="i4-ea9649a6-04b5-47d6-8247-ed3ab9ff9d06" x1="9.927" y1="261.091" x2="9.927" y2="265.582" gradientTransform="translate(0 -250)" gradientUnits="userSpaceOnUse"><stop offset="0.02" stop-color="#5ea0ef" /><stop offset="0.14" stop-color="#5b9fee" /><stop offset="0.23" stop-color="#5b9fee" /><stop offset="0.34" stop-color="#509aeb" /><stop offset="0.44" stop-color="#3f92e6" /><stop offset="0.63" stop-color="#2688df" /><stop offset="0.93" stop-color="#127fd9" /></linearGradient></defs><path d="M8.252,2.521H9.374V9.594H8.252Z" fill="#7a7a7a" /><path d="M10.459,2.3A1.647,1.647,0,1,1,8.813.65h0A1.646,1.646,0,0,1,10.459,2.3Z" fill="#1490df" /><path d="M8.588,9.22h-1.8a2.246,2.246,0,0,0-.348,4.461,2.415,2.415,0,0,1,.022-.835,1.418,1.418,0,0,1,.326-2.8h1.8a1.422,1.422,0,0,1,0,2.844H8.094a1.078,1.078,0,0,0-.1.45,1.022,1.022,0,0,0,.071.374h.527a2.246,2.246,0,1,0,0-4.491Z" fill="url(#i4-fd061228-22be-425e-9131-0b8cca0e5d17)" /><path d="M11.182,11.121a2.642,2.642,0,0,1,.026.344,2.317,2.317,0,0,1-.049.491,1.418,1.418,0,0,1-.325,2.8h-1.8a1.423,1.423,0,0,1,0-2.845h.494a1.042,1.042,0,0,0,.1-.449,1.018,1.018,0,0,0-.071-.374H9.037a2.246,2.246,0,0,0,0,4.491h1.8a2.246,2.246,0,0,0,.348-4.461Z" fill="url(#i4-ea9649a6-04b5-47d6-8247-ed3ab9ff9d06)" /><path d="M5.58,16.525l-.412.415a.28.28,0,0,1-.4,0l-4.607-4.6a.566.566,0,0,1,0-.8l.416-.412,5,4.992a.276.276,0,0,1,0,.391h0Z" fill="#50e6ff" /><path d="M5.082,7.02l.46.46a.282.282,0,0,1,0,.4L.625,12.809l-.461-.457a.566.566,0,0,1,0-.8L4.685,7.02A.28.28,0,0,1,5.082,7.02Z" fill="#1490df" /><path d="M12.417,16.851a.278.278,0,0,1-.006-.392h0l.006,0,5-4.989.416.416a.566.566,0,0,1,0,.8l-4.611,4.588a.277.277,0,0,1-.391.006h0l-.006-.005Z" fill="#50e6ff" /><path d="M13.311,7.349l4.525,4.536a.563.563,0,0,1,0,.793l-.461.46L12.454,8.206a.289.289,0,0,1,0-.4l.46-.456A.282.282,0,0,1,13.311,7.349Z" fill="#1490df" /></svg><text x="442" y="151.0" font-size="13.5" font-weight="700" fill="#0b2a4a" text-anchor="start">AVD Private</text><text x="442" y="169.225" font-size="13.5" font-weight="700" fill="#0b2a4a" text-anchor="start">Link</text><text x="442" y="184.0" font-size="12" font-weight="400" fill="#3f4f60" text-anchor="start">Private service</text><text x="442" y="199.0" font-size="12" font-weight="400" fill="#3f4f60" text-anchor="start">access</text><rect x="382" y="300" width="195" height="95" rx="8" fill="#ffffff" stroke="#cfd8e2" stroke-width="1.2"/><svg x="396" y="317" width="34" height="34" viewBox="0 0 18 18"><defs><radialGradient id="i5-e9a2b8bf-efad-4e15-89f0-635373400131" cx="9" cy="9" r="8.5" gradientUnits="userSpaceOnUse"><stop offset="0" stop-color="#198ab3" /><stop offset="0.382" stop-color="#1a8cb5" /><stop offset="0.576" stop-color="#1c94bc" /><stop offset="0.727" stop-color="#21a1c8" /><stop offset="0.856" stop-color="#27b4d8" /><stop offset="0.97" stop-color="#2fccee" /><stop offset="1" stop-color="#32d4f5" /></radialGradient></defs><g id="i5-faeec9e4-44b9-413a-8332-867d334dcda2"><g><circle cx="9" cy="9" r="8.5" fill="url(#i5-e9a2b8bf-efad-4e15-89f0-635373400131)" /><circle cx="9" cy="9" r="7.321" fill="#005ba1" /></g><g><path d="M9.1,9.937,6.266,7.125a.507.507,0,0,0-.709,0L5.2,7.48a.469.469,0,0,0-.143.337.476.476,0,0,0,.141.339l2.132,2.122L5.152,12.441a.473.473,0,0,0,0,.676l.361.355a.507.507,0,0,0,.709,0L9.1,10.612a.475.475,0,0,0,.141-.338A.468.468,0,0,0,9.1,9.937Z" fill="#f2f2f2" /><path d="M8.755,7.678a.475.475,0,0,0,.141.338l2.88,2.859a.507.507,0,0,0,.709,0l.361-.356a.469.469,0,0,0,.143-.337.475.475,0,0,0-.141-.338L10.674,7.682l2.132-2.123a.475.475,0,0,0,.141-.338.469.469,0,0,0-.143-.337l-.361-.356a.507.507,0,0,0-.709,0L8.9,7.34A.472.472,0,0,0,8.755,7.678Z" fill="#f2f2f2" /></g></g></svg><text x="442" y="331.0" font-size="13.5" font-weight="700" fill="#0b2a4a" text-anchor="start">AVD gateway and</text><text x="442" y="349.225" font-size="13.5" font-weight="700" fill="#0b2a4a" text-anchor="start">broker</text><text x="442" y="364.0" font-size="12" font-weight="400" fill="#3f4f60" text-anchor="start">Reverse connect</text><rect x="660" y="70" width="285" height="470" rx="12" fill="#f4f6f9" stroke="#d3dbe4" stroke-width="1.2"/><text x="676" y="94" font-size="12.5" font-weight="700" fill="#0f548c" text-anchor="start">Hub and spoke Azure</text><rect x="685" y="110" width="105" height="82" rx="8" fill="#ffffff" stroke="#cfd8e2" stroke-width="1.2"/><svg x="699" y="127" width="34" height="34" viewBox="0 0 18 18"><defs><linearGradient id="i6-b012de7b-7a0e-4618-9fec-703622e3e8c3" x1="9" y1="14.14" x2="9" y2="1.38" gradientUnits="userSpaceOnUse"><stop offset="0" stop-color="#0078d4" /><stop offset="0.82" stop-color="#5ea0ef" /></linearGradient></defs><title>Icon-networking-84</title><path d="M18,10.14a4.06,4.06,0,0,0-3.51-3.89A5.1,5.1,0,0,0,9.24,1.38a5.23,5.23,0,0,0-5,3.41A4.82,4.82,0,0,0,0,9.43a4.9,4.9,0,0,0,5.07,4.71l.44,0h8.21a1.46,1.46,0,0,0,.22,0A4.1,4.1,0,0,0,18,10.14Z" fill="url(#i6-b012de7b-7a0e-4618-9fec-703622e3e8c3)" /><path d="M14.29,11.19a.42.42,0,0,0-.42-.41H4.13a.42.42,0,0,0-.42.41v5a.42.42,0,0,0,.42.41h9.74a.42.42,0,0,0,.42-.41v-5Z" fill="#821010" /><rect x="4.3" y="11.36" width="2.87" height="1.27" fill="#e62323" /><rect x="7.6" y="11.36" width="2.87" height="1.27" fill="#ff7381" /><rect x="10.9" y="11.36" width="2.87" height="1.27" fill="#e62323" /><rect x="4.3" y="13.06" width="1.19" height="1.27" fill="#e62323" /><rect x="12.58" y="13.06" width="1.19" height="1.27" fill="#ff7381" /><rect x="5.92" y="13.06" width="2.87" height="1.27" fill="#ff7381" /><rect x="9.23" y="13.06" width="2.87" height="1.27" fill="#e62323" /><rect x="4.3" y="14.76" width="2.87" height="1.27" fill="#e62323" /><rect x="7.6" y="14.76" width="2.87" height="1.27" fill="#ff7381" /><rect x="10.9" y="14.76" width="2.87" height="1.27" fill="#e62323" /></svg><text x="745" y="141.0" font-size="12" font-weight="700" fill="#0b2a4a" text-anchor="start">Hub</text><text x="745" y="164.0" font-size="12" font-weight="400" fill="#3f4f60" text-anchor="start">DNS</text><rect x="812" y="110" width="105" height="82" rx="8" fill="#ffffff" stroke="#cfd8e2" stroke-width="1.2"/><svg x="826" y="127" width="34" height="34" viewBox="0 0 18 18"><defs><linearGradient id="i7-f020fb7e-2243-4501-8153-5d69bd3c34f7" x1="9.88" y1="8.59" x2="11.52" y2="10.23" gradientTransform="translate(2.03 -0.4) rotate(-0.08)" gradientUnits="userSpaceOnUse"><stop offset="0" stop-color="#86d633" /><stop offset="1" stop-color="#5e9624" /></linearGradient><linearGradient id="i7-b3c2bc94-8c7c-48a2-9719-6ee899a43a97" x1="6.18" y1="8.59" x2="7.81" y2="10.23" gradientUnits="userSpaceOnUse"><stop offset="0" stop-color="#86d633" /><stop offset="1" stop-color="#5e9624" /></linearGradient><linearGradient id="i7-e900c35d-0958-4d4f-b28f-302eeaaf52f5" x1="2.48" y1="8.59" x2="4.11" y2="10.23" gradientUnits="userSpaceOnUse"><stop offset="0" stop-color="#86d633" /><stop offset="1" stop-color="#5e9624" /></linearGradient></defs><title>Icon-networking-61</title><circle cx="12.74" cy="8.99" r="1.16" fill="url(#i7-f020fb7e-2243-4501-8153-5d69bd3c34f7)" /><circle cx="9.04" cy="9" r="1.16" fill="url(#i7-b3c2bc94-8c7c-48a2-9719-6ee899a43a97)" /><circle cx="5.34" cy="9" r="1.16" fill="url(#i7-e900c35d-0958-4d4f-b28f-302eeaaf52f5)" /><path d="M2.61,7.28h.94a.3.3,0,0,1,.3.3v6.94a.6.6,0,0,1-.6.6H2.31a0,0,0,0,1,0,0V7.58a.3.3,0,0,1,.3-.3Z" transform="translate(13.18 16.93) rotate(134.92)" fill="#50e6ff" /><path d="M2.56,2.91H3.5a.3.3,0,0,1,.3.3v7.43a0,0,0,0,1,0,0H2.86a.6.6,0,0,1-.6-.6V3.21a.3.3,0,0,1,.3-.3Z" transform="translate(5.66 -0.16) rotate(44.92)" fill="#1490df" /><path d="M14.15,7.28h.94a.6.6,0,0,1,.6.6v6.94a.3.3,0,0,1-.3.3h-.94a.3.3,0,0,1-.3-.3V7.28a0,0,0,0,1,0,0Z" transform="translate(12.32 -7.28) rotate(45.08)" fill="#50e6ff" /><path d="M14.81,2.91h.94a0,0,0,0,1,0,0v7.43a.3.3,0,0,1-.3.3H14.5a.3.3,0,0,1-.3-.3V3.51a.6.6,0,0,1,.6-.6Z" transform="translate(30.36 0.99) rotate(135.08)" fill="#1490df" /></svg><text x="872" y="141.0" font-size="12" font-weight="700" fill="#0b2a4a" text-anchor="start">Spoke</text><text x="872" y="164.0" font-size="12" font-weight="400" fill="#3f4f60" text-anchor="start">Hosts</text><rect x="690" y="230" width="230" height="280" rx="12" fill="#f8fbff" stroke="#d8e5f3" stroke-width="1.2" stroke-dasharray="7 5"/><text x="706" y="254" font-size="12.5" font-weight="700" fill="#0f548c" text-anchor="start">Session host spoke</text><rect x="710" y="280" width="185" height="82" rx="8" fill="#ffffff" stroke="#cfd8e2" stroke-width="1.2"/><svg x="724" y="297" width="34" height="34" viewBox="0 0 18 18"><defs><linearGradient id="i8-b7b52328-afea-4ae3-a11b-e21cf942d33d" x1="9" y1="17.5" x2="9" y2="0.5" gradientUnits="userSpaceOnUse"><stop offset="0" stop-color="#005ba1" /><stop offset="0.168" stop-color="#0063ae" /><stop offset="0.577" stop-color="#0072ca" /><stop offset="0.815" stop-color="#0078d4" /></linearGradient></defs><g id="i8-f296cd5a-787e-4f7b-ae7d-f8e4c512e403"><g><circle cx="9" cy="9" r="8.5" fill="url(#i8-b7b52328-afea-4ae3-a11b-e21cf942d33d)" /><g id="i8-b26dad0a-3648-4f5e-b5e8-d86f08f4d08c"><g id="i8-bf235d1c-b690-40eb-8a79-cf880451778d"><g id="i8-bcd9163a-c4d8-4e54-8c97-4a109bf64f75"><path id="i8-e49dfb7e-134a-43bd-83fc-ab356cb14af0" d="M13.046,6.635v4.709L8.984,13.707V8.992Z" fill="#32bedd" /></g><g id="i8-a5b973ff-f0b7-405d-8643-344e4c6197bf"><path id="i8-b4b89f14-a55a-428c-a4ac-415feb735142" d="M13.046,6.635,8.99,9,4.928,6.635,8.99,4.272Z" fill="#9cebff" /></g><g id="i8-adac1240-6aa9-4f15-96e4-37e67d1c6c71"><path id="i8-f65d8fa4-1c52-4beb-89ef-75de96e9143e" d="M8.984,9v4.709L4.928,11.344V6.635Z" fill="#50e6ff" /></g><path id="i8-b5d243da-3c58-4a56-96f0-5072c268eecc" d="M4.928,11.344,8.984,8.992v4.715Z" fill="#9cebff" /><path id="i8-f11f8f15-8a95-4259-8c1e-cffcafd2ea60" d="M13.046,11.344,8.984,8.992v4.715Z" fill="#50e6ff" /></g></g></g></g></svg><text x="770" y="311.0" font-size="13.5" font-weight="700" fill="#0b2a4a" text-anchor="start">Session hosts</text><text x="770" y="334.0" font-size="12" font-weight="400" fill="#3f4f60" text-anchor="start">Outbound only</text><rect x="710" y="390" width="185" height="84" rx="8" fill="#ffffff" stroke="#cfd8e2" stroke-width="1.2"/><svg x="724" y="407" width="34" height="34" viewBox="0 0 18 18"><defs><linearGradient id="i9-f386bb7a-bcb2-4b67-b5b2-06819618ff51" x1="9.084" y1="790.967" x2="9.084" y2="787.492" gradientTransform="matrix(1, 0, 0, -1, 0, 791.516)" gradientUnits="userSpaceOnUse"><stop offset="0" stop-color="#50e6ff" /><stop offset="1" stop-color="#32bedd" /></linearGradient><linearGradient id="i9-a62a9cad-b173-4785-ba81-8ee30d4dc6eb" x1="9.065" y1="13.843" x2="9.065" y2="10.368" gradientUnits="userSpaceOnUse"><stop offset="0" stop-color="#5e9624" /><stop offset="0.183" stop-color="#629c25" /><stop offset="0.435" stop-color="#6dae2a" /><stop offset="0.726" stop-color="#7fcb30" /><stop offset="0.822" stop-color="#86d633" /></linearGradient></defs><g id="i9-bdcd7268-31fc-4163-9544-651d61f1498e"><g><path d="M7.85,13.342a1.738,1.738,0,1,0,2.436-2.479,1.715,1.715,0,0,0-.626-.389V3.009H8.548v7.444a1.729,1.729,0,0,0-.7,2.891Z" fill="#b3b3b3" /><circle cx="9.084" cy="2.209" r="1.738" fill="url(#i9-f386bb7a-bcb2-4b67-b5b2-06819618ff51)" /><g><path d="M2.632,10.449h.937a.3.3,0,0,1,.3.3v6.909a.6.6,0,0,1-.6.6H2.332a0,0,0,0,1,0,0V10.749A.3.3,0,0,1,2.632,10.449Z" transform="translate(15.452 22.292) rotate(134.919)" fill="#50e6ff" /><path d="M2.581,6.093h.937a.3.3,0,0,1,.3.3v7.4a0,0,0,0,1,0,0H2.88a.6.6,0,0,1-.6-.6v-6.8A.3.3,0,0,1,2.581,6.093Z" transform="translate(7.91 0.749) rotate(44.919)" fill="#1490df" /><path d="M14.132,10.449h.937a.6.6,0,0,1,.6.6v6.909a.3.3,0,0,1-.3.3h-.937a.3.3,0,0,1-.3-.3V10.449a0,0,0,0,1,0,0Z" transform="translate(14.542 -6.333) rotate(45.081)" fill="#50e6ff" /><path d="M14.782,6.093h.937a0,0,0,0,1,0,0v7.4a.3.3,0,0,1-.3.3h-.937a.3.3,0,0,1-.3-.3v-6.8A.6.6,0,0,1,14.782,6.093Z" transform="translate(32.558 6.424) rotate(135.081)" fill="#1490df" /></g><circle cx="9.065" cy="12.106" r="1.738" fill="url(#i9-a62a9cad-b173-4785-ba81-8ee30d4dc6eb)" /></g></g></svg><text x="770" y="421.0" font-size="13.5" font-weight="700" fill="#0b2a4a" text-anchor="start">Azure Files</text><text x="770" y="444.0" font-size="12" font-weight="400" fill="#3f4f60" text-anchor="start">Private endpoint</text><path d="M268,165 L382,165" fill="none" stroke="#0f6cbd" stroke-width="1.7" stroke-linejoin="round" stroke-linecap="round" stroke-dasharray="6 5" marker-end="url(#arrow-dashed)"/><path d="M268,355 L382,355" fill="none" stroke="#0f6cbd" stroke-width="1.7" stroke-linejoin="round" stroke-linecap="round" marker-end="url(#arrow)"/><path d="M480,230 L480,300" fill="none" stroke="#0f6cbd" stroke-width="1.7" stroke-linejoin="round" stroke-linecap="round" marker-end="url(#arrow)"/><path d="M577,348 L660,348 L660,322 L710,322" fill="none" stroke="#0f6cbd" stroke-width="1.7" stroke-linejoin="round" stroke-linecap="round" marker-end="url(#arrow)"/><path d="M255,490 L690,490" fill="none" stroke="#0f6cbd" stroke-width="1.7" stroke-linejoin="round" stroke-linecap="round" stroke-dasharray="6 5" marker-end="url(#arrow-dashed)"/><path d="M268,165 L330,165 L330,265 L760,265 L760,280" fill="none" stroke="#0f6cbd" stroke-width="1.7" stroke-linejoin="round" stroke-linecap="round" stroke-dasharray="6 5" marker-end="url(#arrow-dashed)"/><path d="M765,362 L765,390" fill="none" stroke="#0f6cbd" stroke-width="1.7" stroke-linejoin="round" stroke-linecap="round" marker-end="url(#arrow)"/><circle cx="318" cy="165" r="11" fill="#0f6cbd"/><text x="318" y="169.5" font-size="12.5" font-weight="700" fill="#ffffff" text-anchor="middle">1</text><circle cx="318" cy="355" r="11" fill="#0f6cbd"/><text x="318" y="359.5" font-size="12.5" font-weight="700" fill="#ffffff" text-anchor="middle">2</text><circle cx="635" cy="348" r="11" fill="#0f6cbd"/><text x="635" y="352.5" font-size="12.5" font-weight="700" fill="#ffffff" text-anchor="middle">3</text><circle cx="632" cy="490" r="11" fill="#0f6cbd"/><text x="632" y="494.5" font-size="12.5" font-weight="700" fill="#ffffff" text-anchor="middle">4</text><circle cx="765" cy="376" r="11" fill="#0f6cbd"/><text x="765" y="380.5" font-size="12.5" font-weight="700" fill="#ffffff" text-anchor="middle">5</text></svg>
