<svg xmlns="http://www.w3.org/2000/svg" xmlns:xlink="http://www.w3.org/1999/xlink" viewBox="0 85 1000 505" width="1000" height="505" font-family="'Segoe UI', 'Segoe UI Variable', system-ui, -apple-system, 'Helvetica Neue', Arial, sans-serif" role="img" aria-labelledby="t d"><title id="t">Dynamic autoscaling create and delete lifecycle</title><desc id="d">Dynamic autoscaling uses the session host configuration to create hosts for demand and delete disposable ephemeral OS disk hosts as demand falls.</desc><defs><marker id="arrow" viewBox="0 0 10 10" refX="9" refY="5" markerWidth="7" markerHeight="7" orient="auto-start-reverse"><path d="M0,0 L10,5 L0,10 z" fill="#4aa3f0"/></marker><marker id="arrow-dashed" viewBox="0 0 10 10" refX="9" refY="5" markerWidth="7" markerHeight="7" orient="auto-start-reverse"><path d="M0,0 L10,5 L0,10 z" fill="#7b93b2"/></marker></defs><rect x="70" y="120" width="150" height="105" rx="8" fill="#1b2636" stroke="#33465c" stroke-width="1.2"/><circle cx="87" cy="138" r="10" fill="#4aa3f0"/><text x="87" y="141.96" font-size="11" font-weight="700" fill="#0b1724" text-anchor="middle">1</text><svg x="114" y="137" width="34" height="34" viewBox="0 0 18 18"><defs><radialGradient id="i1-e9a2b8bf-efad-4e15-89f0-635373400131" cx="9" cy="9" r="8.5" gradientUnits="userSpaceOnUse"><stop offset="0" stop-color="#198ab3" /><stop offset="0.382" stop-color="#1a8cb5" /><stop offset="0.576" stop-color="#1c94bc" /><stop offset="0.727" stop-color="#21a1c8" /><stop offset="0.856" stop-color="#27b4d8" /><stop offset="0.97" stop-color="#2fccee" /><stop offset="1" stop-color="#32d4f5" /></radialGradient></defs><g id="i1-faeec9e4-44b9-413a-8332-867d334dcda2"><g><circle cx="9" cy="9" r="8.5" fill="url(#i1-e9a2b8bf-efad-4e15-89f0-635373400131)" /><circle cx="9" cy="9" r="7.321" fill="#005ba1" /></g><g><path d="M9.1,9.937,6.266,7.125a.507.507,0,0,0-.709,0L5.2,7.48a.469.469,0,0,0-.143.337.476.476,0,0,0,.141.339l2.132,2.122L5.152,12.441a.473.473,0,0,0,0,.676l.361.355a.507.507,0,0,0,.709,0L9.1,10.612a.475.475,0,0,0,.141-.338A.468.468,0,0,0,9.1,9.937Z" fill="#f2f2f2" /><path d="M8.755,7.678a.475.475,0,0,0,.141.338l2.88,2.859a.507.507,0,0,0,.709,0l.361-.356a.469.469,0,0,0,.143-.337.475.475,0,0,0-.141-.338L10.674,7.682l2.132-2.123a.475.475,0,0,0,.141-.338.469.469,0,0,0-.143-.337l-.361-.356a.507.507,0,0,0-.709,0L8.9,7.34A.472.472,0,0,0,8.755,7.678Z" fill="#f2f2f2" /></g></g></svg><text x="160" y="151.0" font-size="13.5" font-weight="700" fill="#e9eff6" text-anchor="start">Scaling</text><text x="160" y="169.225" font-size="13.5" font-weight="700" fill="#e9eff6" text-anchor="start">plan</text><text x="160" y="184.0" font-size="12" font-weight="400" fill="#aab8c7" text-anchor="start">Schedule</text><rect x="270" y="120" width="150" height="105" rx="8" fill="#1b2636" stroke="#f7c56b" stroke-width="2"/><circle cx="287" cy="138" r="10" fill="#4aa3f0"/><text x="287" y="141.96" font-size="11" font-weight="700" fill="#0b1724" text-anchor="middle">2</text><rect x="362" y="199" width="44" height="18" rx="9" fill="#3a2b12" stroke="#f7c56b" stroke-width="1"/><path d="M371,208 h-2 v6 h8 v-6 h-2 v-3 a2,2 0 0 0 -4,0 z" fill="none" stroke="#f7c56b" stroke-width="1"/><text x="391" y="212" font-size="9" font-weight="700" fill="#f7c56b" text-anchor="middle">fixed</text><svg x="314" y="137" width="34" height="34" viewBox="0 0 18 18"><defs><linearGradient id="i2-b7b52328-afea-4ae3-a11b-e21cf942d33d" x1="9" y1="17.5" x2="9" y2="0.5" gradientUnits="userSpaceOnUse"><stop offset="0" stop-color="#005ba1" /><stop offset="0.168" stop-color="#0063ae" /><stop offset="0.577" stop-color="#0072ca" /><stop offset="0.815" stop-color="#0078d4" /></linearGradient></defs><g id="i2-f296cd5a-787e-4f7b-ae7d-f8e4c512e403"><g><circle cx="9" cy="9" r="8.5" fill="url(#i2-b7b52328-afea-4ae3-a11b-e21cf942d33d)" /><g id="i2-b26dad0a-3648-4f5e-b5e8-d86f08f4d08c"><g id="i2-bf235d1c-b690-40eb-8a79-cf880451778d"><g id="i2-bcd9163a-c4d8-4e54-8c97-4a109bf64f75"><path id="i2-e49dfb7e-134a-43bd-83fc-ab356cb14af0" d="M13.046,6.635v4.709L8.984,13.707V8.992Z" fill="#32bedd" /></g><g id="i2-a5b973ff-f0b7-405d-8643-344e4c6197bf"><path id="i2-b4b89f14-a55a-428c-a4ac-415feb735142" d="M13.046,6.635,8.99,9,4.928,6.635,8.99,4.272Z" fill="#9cebff" /></g><g id="i2-adac1240-6aa9-4f15-96e4-37e67d1c6c71"><path id="i2-f65d8fa4-1c52-4beb-89ef-75de96e9143e" d="M8.984,9v4.709L4.928,11.344V6.635Z" fill="#50e6ff" /></g><path id="i2-b5d243da-3c58-4a56-96f0-5072c268eecc" d="M4.928,11.344,8.984,8.992v4.715Z" fill="#9cebff" /><path id="i2-f11f8f15-8a95-4259-8c1e-cffcafd2ea60" d="M13.046,11.344,8.984,8.992v4.715Z" fill="#50e6ff" /></g></g></g></g></svg><text x="360" y="151.0" font-size="13.5" font-weight="700" fill="#e9eff6" text-anchor="start">Host</text><text x="360" y="169.225" font-size="13.5" font-weight="700" fill="#e9eff6" text-anchor="start">config</text><text x="360" y="184.0" font-size="12" font-weight="400" fill="#aab8c7" text-anchor="start">Source</text><rect x="470" y="120" width="150" height="105" rx="8" fill="#1b2636" stroke="#33465c" stroke-width="1.2"/><circle cx="487" cy="138" r="10" fill="#4aa3f0"/><text x="487" y="141.96" font-size="11" font-weight="700" fill="#0b1724" text-anchor="middle">3</text><svg x="514" y="137" width="34" height="34" viewBox="0 0 18 18"><defs><linearGradient id="i3-f34d9569-2bd0-4002-8f16-3d01d8106cb5" x1="8.88" y1="12.21" x2="8.88" y2="0.21" gradientUnits="userSpaceOnUse"><stop offset="0" stop-color="#0078d4" /><stop offset="0.82" stop-color="#5ea0ef" /></linearGradient><linearGradient id="i3-bdb45a0b-eb58-4970-a60a-fb2ce314f866" x1="8.88" y1="16.84" x2="8.88" y2="12.21" gradientUnits="userSpaceOnUse"><stop offset="0.15" stop-color="#ccc" /><stop offset="1" stop-color="#707070" /></linearGradient></defs><title>Icon-compute-21</title><rect x="-0.12" y="0.21" width="18" height="12" rx="0.6" fill="url(#i3-f34d9569-2bd0-4002-8f16-3d01d8106cb5)" /><polygon points="11.88 4.46 11.88 7.95 8.88 9.71 8.88 6.21 11.88 4.46" fill="#50e6ff" /><polygon points="11.88 4.46 8.88 6.22 5.88 4.46 8.88 2.71 11.88 4.46" fill="#c3f1ff" /><polygon points="8.88 6.22 8.88 9.71 5.88 7.95 5.88 4.46 8.88 6.22" fill="#9cebff" /><polygon points="5.88 7.95 8.88 6.21 8.88 9.71 5.88 7.95" fill="#c3f1ff" /><polygon points="11.88 7.95 8.88 6.21 8.88 9.71 11.88 7.95" fill="#9cebff" /><path d="M12.49,15.84c-1.78-.28-1.85-1.56-1.85-3.63H7.11c0,2.07-.06,3.35-1.84,3.63a1,1,0,0,0-.89,1h9A1,1,0,0,0,12.49,15.84Z" fill="url(#i3-bdb45a0b-eb58-4970-a60a-fb2ce314f866)" /></svg><text x="560" y="151.0" font-size="13.5" font-weight="700" fill="#e9eff6" text-anchor="start">Create</text><text x="560" y="169.225" font-size="13.5" font-weight="700" fill="#e9eff6" text-anchor="start">hosts</text><text x="560" y="184.0" font-size="12" font-weight="400" fill="#aab8c7" text-anchor="start">Ramp up</text><rect x="670" y="120" width="150" height="105" rx="8" fill="#1b2636" stroke="#33465c" stroke-width="1.2"/><circle cx="687" cy="138" r="10" fill="#4aa3f0"/><text x="687" y="141.96" font-size="11" font-weight="700" fill="#0b1724" text-anchor="middle">4</text><svg x="714" y="137" width="34" height="34" viewBox="0 0 18 18"><defs><linearGradient id="i4-be92901b-ec33-4c65-adf1-9b0eed06d677" x1="9" y1="6.88" x2="9" y2="20.45" gradientUnits="userSpaceOnUse"><stop offset="0.22" stop-color="#32d4f5" /><stop offset="1" stop-color="#198ab3" /></linearGradient><linearGradient id="i4-b46fc246-25d8-4398-8779-1042e8cacae7" x1="8.61" y1="-0.4" x2="9.6" y2="11.92" gradientUnits="userSpaceOnUse"><stop offset="0.22" stop-color="#32d4f5" /><stop offset="1" stop-color="#198ab3" /></linearGradient></defs><title>Icon-identity-230</title><path d="M15.72,18a1.45,1.45,0,0,0,1.45-1.45.47.47,0,0,0,0-.17C16.59,11.81,14,8.09,9,8.09S1.34,11.24.83,16.39A1.46,1.46,0,0,0,2.14,18H15.72Z" fill="url(#i4-be92901b-ec33-4c65-adf1-9b0eed06d677)" /><path d="M9,9.17a4.59,4.59,0,0,1-2.48-.73L9,14.86l2.44-6.38A4.53,4.53,0,0,1,9,9.17Z" fill="#fff" opacity="0.8" /><circle cx="9.01" cy="4.58" r="4.58" fill="url(#i4-b46fc246-25d8-4398-8779-1042e8cacae7)" /></svg><text x="760" y="151.0" font-size="13.5" font-weight="700" fill="#e9eff6" text-anchor="start">Users</text><text x="760" y="174.0" font-size="12" font-weight="400" fill="#aab8c7" text-anchor="start">Capacity</text><rect x="470" y="360" width="150" height="105" rx="8" fill="#1b2636" stroke="#33465c" stroke-width="1.2"/><circle cx="487" cy="378" r="10" fill="#4aa3f0"/><text x="487" y="381.96" font-size="11" font-weight="700" fill="#0b1724" text-anchor="middle">5</text><svg x="514" y="377" width="34" height="34" viewBox="0 0 18 18"><defs><linearGradient id="i5-f34d9569-2bd0-4002-8f16-3d01d8106cb5" x1="8.88" y1="12.21" x2="8.88" y2="0.21" gradientUnits="userSpaceOnUse"><stop offset="0" stop-color="#0078d4" /><stop offset="0.82" stop-color="#5ea0ef" /></linearGradient><linearGradient id="i5-bdb45a0b-eb58-4970-a60a-fb2ce314f866" x1="8.88" y1="16.84" x2="8.88" y2="12.21" gradientUnits="userSpaceOnUse"><stop offset="0.15" stop-color="#ccc" /><stop offset="1" stop-color="#707070" /></linearGradient></defs><title>Icon-compute-21</title><rect x="-0.12" y="0.21" width="18" height="12" rx="0.6" fill="url(#i5-f34d9569-2bd0-4002-8f16-3d01d8106cb5)" /><polygon points="11.88 4.46 11.88 7.95 8.88 9.71 8.88 6.21 11.88 4.46" fill="#50e6ff" /><polygon points="11.88 4.46 8.88 6.22 5.88 4.46 8.88 2.71 11.88 4.46" fill="#c3f1ff" /><polygon points="8.88 6.22 8.88 9.71 5.88 7.95 5.88 4.46 8.88 6.22" fill="#9cebff" /><polygon points="5.88 7.95 8.88 6.21 8.88 9.71 5.88 7.95" fill="#c3f1ff" /><polygon points="11.88 7.95 8.88 6.21 8.88 9.71 11.88 7.95" fill="#9cebff" /><path d="M12.49,15.84c-1.78-.28-1.85-1.56-1.85-3.63H7.11c0,2.07-.06,3.35-1.84,3.63a1,1,0,0,0-.89,1h9A1,1,0,0,0,12.49,15.84Z" fill="url(#i5-bdb45a0b-eb58-4970-a60a-fb2ce314f866)" /></svg><text x="560" y="391.0" font-size="13.5" font-weight="700" fill="#e9eff6" text-anchor="start">Delete</text><text x="560" y="409.225" font-size="13.5" font-weight="700" fill="#e9eff6" text-anchor="start">hosts</text><text x="560" y="424.0" font-size="12" font-weight="400" fill="#aab8c7" text-anchor="start">Delete</text><text x="560" y="439.0" font-size="12" font-weight="400" fill="#aab8c7" text-anchor="start">only</text><rect x="270" y="360" width="150" height="105" rx="8" fill="#1b2636" stroke="#33465c" stroke-width="1.2"/><circle cx="287" cy="378" r="10" fill="#4aa3f0"/><text x="287" y="381.96" font-size="11" font-weight="700" fill="#0b1724" text-anchor="middle">6</text><svg x="314" y="377" width="34" height="34" viewBox="0 0 18 18"><defs><radialGradient id="i6-ac8b32da-30ca-4b92-8d0f-8d2d5ef278a0" cx="5.72" cy="7.45" r="8.42" gradientTransform="translate(3.23 1.51) scale(1.01 1.01)" gradientUnits="userSpaceOnUse"><stop offset="0.18" stop-color="#5ea0ef" /><stop offset="0.56" stop-color="#5c9fee" /><stop offset="0.69" stop-color="#559ced" /><stop offset="0.78" stop-color="#4a97e9" /><stop offset="0.86" stop-color="#3990e4" /><stop offset="0.93" stop-color="#2387de" /><stop offset="0.99" stop-color="#087bd6" /><stop offset="1" stop-color="#0078d4" /></radialGradient><radialGradient id="i6-a9954820-cb38-4943-9842-f0a568d2b015" cx="28.18" cy="202.29" r="2.7" gradientTransform="translate(-17.77 -185.01) scale(0.95)" gradientUnits="userSpaceOnUse"><stop offset="0.19" stop-color="#8c8e90" /><stop offset="0.35" stop-color="#848688" /><stop offset="0.6" stop-color="#6e7071" /><stop offset="0.91" stop-color="#4a4b4c" /><stop offset="1" stop-color="#3e3f3f" /></radialGradient></defs><title>Icon-manage-317</title><ellipse cx="9" cy="9" rx="8.5" ry="8.47" fill="url(#i6-ac8b32da-30ca-4b92-8d0f-8d2d5ef278a0)" /><ellipse cx="9" cy="9" rx="7.4" ry="7.37" fill="#fff" /><path d="M2.72,9.44a6.24,6.24,0,0,0,1.82,4l2-2a3.53,3.53,0,0,1-1-2Z" fill="#9cebff" /><path d="M13.13,4.27A6.25,6.25,0,0,0,9.44,2.74V5.53a3.41,3.41,0,0,1,1.71.7Z" fill="#32bedd" /><path d="M4.87,4.27l2,2a3.41,3.41,0,0,1,1.71-.7V2.74A6.25,6.25,0,0,0,4.87,4.27Z" fill="#32bedd" /><path d="M11.78,6.85a3.6,3.6,0,0,1,.71,1.71h2.79a6.16,6.16,0,0,0-1.53-3.67Z" fill="#32bedd" /><path d="M6.22,6.85l-2-2A6.16,6.16,0,0,0,2.72,8.56H5.51A3.6,3.6,0,0,1,6.22,6.85Z" fill="#50e6ff" /><path d="M14.14,7a.45.45,0,0,0-.57-.25L9.45,8.41l.32.81,4.12-1.63A.44.44,0,0,0,14.14,7Z" fill="#f04049" /><ellipse cx="9" cy="9" rx="1.2" ry="1.2" fill="url(#i6-a9954820-cb38-4943-9842-f0a568d2b015)" /></svg><text x="360" y="391.0" font-size="13.5" font-weight="700" fill="#e9eff6" text-anchor="start">Logs</text><text x="360" y="414.0" font-size="12" font-weight="400" fill="#aab8c7" text-anchor="start">Data</text><path d="M220,172 L270,172" fill="none" stroke="#4aa3f0" stroke-width="1.7" stroke-linejoin="round" stroke-linecap="round" marker-end="url(#arrow)"/><path d="M420,172 L470,172" fill="none" stroke="#4aa3f0" stroke-width="1.7" stroke-linejoin="round" stroke-linecap="round" marker-end="url(#arrow)"/><path d="M620,172 L670,172" fill="none" stroke="#4aa3f0" stroke-width="1.7" stroke-linejoin="round" stroke-linecap="round" marker-end="url(#arrow)"/><path d="M745,225 L745,412 L620,412" fill="none" stroke="#4aa3f0" stroke-width="1.7" stroke-linejoin="round" stroke-linecap="round" marker-end="url(#arrow)"/><path d="M470,412 L420,412" fill="none" stroke="#4aa3f0" stroke-width="1.7" stroke-linejoin="round" stroke-linecap="round" marker-end="url(#arrow)"/><path d="M345,360 L345,225" fill="none" stroke="#4aa3f0" stroke-width="1.7" stroke-linejoin="round" stroke-linecap="round" stroke-dasharray="6 5" marker-end="url(#arrow-dashed)"/><rect x="685" y="500" width="230" height="55.0" rx="8" fill="#1b2636" stroke="#33465c" stroke-width="1"/><text x="693" y="515.0" font-size="12" font-weight="600" fill="#e9eff6" text-anchor="start">For ephemeral OS disks, design</text><text x="693" y="531.2" font-size="12" font-weight="600" fill="#e9eff6" text-anchor="start">around create and delete. Do not</text><text x="693" y="547.4" font-size="12" font-weight="600" fill="#e9eff6" text-anchor="start">rely on deallocation.</text></svg>
